<?xml version="1.0" encoding="utf-8"?>
<!-- Generator: Adobe Illustrator 25.2.0, SVG Export Plug-In . SVG Version: 6.00 Build 0)  -->
<svg version="1.1" id="Layer_1_1_" xmlns="http://www.w3.org/2000/svg" xmlns:xlink="http://www.w3.org/1999/xlink" x="0px" y="0px"
	 viewBox="0 0 55 50" style="enable-background:new 0 0 55 50;" xml:space="preserve">
<style type="text/css">
	.st0{fill:url(#SVGID_1_);}
	.st1{fill:url(#SVGID_2_);}
	.st2{fill:url(#SVGID_3_);}
	.st3{fill:url(#SVGID_4_);}
	.st4{fill:url(#SVGID_5_);}
</style>
<g>
	<linearGradient id="SVGID_1_" gradientUnits="userSpaceOnUse" x1="4.5" y1="25" x2="50.6" y2="25">
		<stop  offset="0" style="stop-color:#AA0078"/>
		<stop  offset="0.1484" style="stop-color:#A60078"/>
		<stop  offset="0.3022" style="stop-color:#990078"/>
		<stop  offset="0.4585" style="stop-color:#850078"/>
		<stop  offset="0.6166" style="stop-color:#680078"/>
		<stop  offset="0.7761" style="stop-color:#420078"/>
		<stop  offset="0.9345" style="stop-color:#150078"/>
		<stop  offset="1" style="stop-color:#000078"/>
	</linearGradient>
	<path class="st0" d="M46.8,38.7L40.9,37v-1.5c0.8-0.6,1.4-1.5,1.8-2.4h0.4c1.6,0,3-1.3,3-3v-6.6c0-2.1-1.4-3.9-3.3-4.4l-0.7-0.6
		c-1.6-1.6-3.6-2.3-5.7-2.3c-0.8,0-1.5,0.1-2.2,0.3v-7c0.8,0,1.5-0.7,1.5-1.5V6.4C35.7,5.6,35,5,34.2,5h-8.5c-1.1-1.8-3-3-5.2-3
		h-0.8c-2.2,0-4.2,1.1-5.2,3H6C5.2,5,4.5,5.6,4.5,6.4v1.5c0,0.8,0.7,1.5,1.5,1.5v19.3h13.4v8.2c-1.3,0.3-2.3,1.5-2.3,2.9
		c0,1.6,1.3,3,3,3s3-1.3,3-3c0-1.4-1-2.5-2.3-2.9v-8.2h7.4v1.5c0,1.6,1.3,3,3,3h0.4c0.3,1,1,1.7,1.8,2.4V37l-5.9,1.7
		c-2.2,0.6-3.7,2.7-3.7,4.9V48h26.8v-4.3C50.5,41.4,48.9,39.4,46.8,38.7z M21.6,39.8c0,0.8-0.7,1.5-1.5,1.5s-1.5-0.7-1.5-1.5
		s0.7-1.5,1.5-1.5C20.9,38.4,21.6,39.1,21.6,39.8z M42,39l-1.5,3.4l-2.3-1.8l2.1-2.1L42,39z M43.1,31.7L43.1,31.7c0-0.3,0-0.5,0-0.8
		v-2.3c0.8,0,1.5,0.7,1.5,1.5S43.9,31.7,43.1,31.7z M6,6.4h9.4L15.5,6c0.8-1.6,2.3-2.5,4.2-2.5h0.8c1.7,0,3.4,1,4.2,2.5l0.2,0.4h9.4
		v1.5H6V6.4z M7.5,27.3V9.4h25.3V17c-2.6,1.3-4.4,4.1-4.4,7.2v3L7.5,27.3L7.5,27.3z M31.2,31.7c-0.8,0-1.5-0.7-1.5-1.5
		s0.7-1.5,1.5-1.5V31C31.2,31.2,31.2,31.4,31.2,31.7L31.2,31.7z M31.4,27.3h-0.2c-0.5,0-1,0.2-1.5,0.4v-3.5c0-3.6,3-6.6,6.6-6.6
		c1.7,0,3.4,0.7,4.7,1.9l1,1l0.2,0.1c1.4,0.3,2.4,1.6,2.4,3.1v4c-0.4-0.3-1-0.4-1.5-0.4h-0.2C42.5,26,41.3,25,39.8,25
		c-0.3,0-0.7,0.1-1,0.2l-1.6,0.5l-1.6-0.5c-0.3-0.1-0.7-0.2-1-0.2C33.1,25,31.8,26,31.4,27.3z M32.7,30.9v-2.6c0-1,0.8-1.8,1.8-1.8
		c0.2,0,0.3,0,0.6,0.1l2.1,0.7l2.1-0.7c0.2-0.1,0.3-0.1,0.6-0.1c1,0,1.8,0.8,1.8,1.8v2.6c0,2.4-2,4.4-4.4,4.4
		C34.9,35.3,32.7,33.4,32.7,30.9z M37.1,36.9c0.8,0,1.6-0.2,2.3-0.4v0.9l-2.3,2.3l-2.3-2.3v-0.9C35.6,36.7,36.4,36.9,37.1,36.9z
		 M33.9,38.5l2.1,2.1l-2.3,1.8L32.3,39L33.9,38.5z M25.2,43.7c0-1.6,1.1-3.1,2.7-3.6l2.9-0.9l2.3,5.4l3.3-2.6v4.4h-6.7V42h-1.5v4.4
		h-3V43.7L25.2,43.7z M49,46.5h-3v-4.4h-1.5v4.4h-6.7v-4.4l3.3,2.6l2.3-5.4l2.9,0.9c1.6,0.4,2.7,1.9,2.7,3.6V46.5L49,46.5z"/>
	<linearGradient id="SVGID_2_" gradientUnits="userSpaceOnUse" x1="17.9" y1="5.75" x2="22.3" y2="5.75">
		<stop  offset="0" style="stop-color:#AA0078"/>
		<stop  offset="0.1484" style="stop-color:#A60078"/>
		<stop  offset="0.3022" style="stop-color:#990078"/>
		<stop  offset="0.4585" style="stop-color:#850078"/>
		<stop  offset="0.6166" style="stop-color:#680078"/>
		<stop  offset="0.7761" style="stop-color:#420078"/>
		<stop  offset="0.9345" style="stop-color:#150078"/>
		<stop  offset="1" style="stop-color:#000078"/>
	</linearGradient>
	<rect x="17.9" y="5" class="st1" width="4.4" height="1.5"/>
	<linearGradient id="SVGID_3_" gradientUnits="userSpaceOnUse" x1="12.7" y1="18.3" x2="27.5" y2="18.3">
		<stop  offset="0" style="stop-color:#AA0078"/>
		<stop  offset="0.1484" style="stop-color:#A60078"/>
		<stop  offset="0.3022" style="stop-color:#990078"/>
		<stop  offset="0.4585" style="stop-color:#850078"/>
		<stop  offset="0.6166" style="stop-color:#680078"/>
		<stop  offset="0.7761" style="stop-color:#420078"/>
		<stop  offset="0.9345" style="stop-color:#150078"/>
		<stop  offset="1" style="stop-color:#000078"/>
	</linearGradient>
	<path class="st2" d="M20.1,10.9c-4.1,0-7.4,3.3-7.4,7.4s3.3,7.4,7.4,7.4s7.4-3.3,7.4-7.4S24.2,10.9,20.1,10.9z M23.7,13.6l-1,1
		c-0.7-0.5-1.6-0.9-2.6-0.9s-1.8,0.3-2.6,0.9l-1-1c1-0.8,2.3-1.2,3.6-1.2S22.7,12.8,23.7,13.6z M17.1,18.3c0-1.6,1.3-3,3-3
		s3,1.3,3,3c0,1.6-1.3,3-3,3C18.5,21.3,17.1,20,17.1,18.3z M15.4,14.7l1,1c-0.5,0.7-0.9,1.6-0.9,2.6s0.3,1.8,0.9,2.6l-1,1
		c-0.8-1-1.2-2.3-1.2-3.6S14.7,15.7,15.4,14.7z M16.5,23l1-1c0.7,0.5,1.6,0.9,2.6,0.9s1.8-0.3,2.6-0.9l1,1c-1,0.8-2.3,1.2-3.6,1.2
		C18.7,24.2,17.4,23.8,16.5,23z M24.7,22l-1-1c0.5-0.7,0.9-1.6,0.9-2.6s-0.3-1.8-0.9-2.6l1-1c0.8,1,1.2,2.3,1.2,3.6
		S25.5,20.9,24.7,22z"/>
	<linearGradient id="SVGID_4_" gradientUnits="userSpaceOnUse" x1="8.9" y1="11.65" x2="13.3" y2="11.65">
		<stop  offset="0" style="stop-color:#AA0078"/>
		<stop  offset="0.1484" style="stop-color:#A60078"/>
		<stop  offset="0.3022" style="stop-color:#990078"/>
		<stop  offset="0.4585" style="stop-color:#850078"/>
		<stop  offset="0.6166" style="stop-color:#680078"/>
		<stop  offset="0.7761" style="stop-color:#420078"/>
		<stop  offset="0.9345" style="stop-color:#150078"/>
		<stop  offset="1" style="stop-color:#000078"/>
	</linearGradient>
	<rect x="8.9" y="10.9" class="st3" width="4.4" height="1.5"/>
	<linearGradient id="SVGID_5_" gradientUnits="userSpaceOnUse" x1="8.9" y1="24.95" x2="13.3" y2="24.95">
		<stop  offset="0" style="stop-color:#AA0078"/>
		<stop  offset="0.1484" style="stop-color:#A60078"/>
		<stop  offset="0.3022" style="stop-color:#990078"/>
		<stop  offset="0.4585" style="stop-color:#850078"/>
		<stop  offset="0.6166" style="stop-color:#680078"/>
		<stop  offset="0.7761" style="stop-color:#420078"/>
		<stop  offset="0.9345" style="stop-color:#150078"/>
		<stop  offset="1" style="stop-color:#000078"/>
	</linearGradient>
	<rect x="8.9" y="24.2" class="st4" width="4.4" height="1.5"/>
</g>
</svg>
