<?xml version="1.0" encoding="utf-8"?>
<!-- Generator: Adobe Illustrator 25.2.0, SVG Export Plug-In . SVG Version: 6.00 Build 0)  -->
<svg version="1.1" id="Layer_1" xmlns="http://www.w3.org/2000/svg" xmlns:xlink="http://www.w3.org/1999/xlink" x="0px" y="0px"
	 viewBox="0 0 570 500" style="enable-background:new 0 0 570 500;" xml:space="preserve">
<style type="text/css">
	.st0{fill:#FBECEC;}
	.st1{fill:#C7D3DD;}
	.st2{fill:#01414D;}
	.st3{fill:#75A340;}
	.st4{fill:#C16339;}
	.st5{fill:#DC8455;}
	.st6{fill:#48BAEB;}
	.st7{fill:#D94F8D;}
	.st8{fill:#FFFFFF;}
	.st9{fill:#A0969D;}
	.st10{fill:#EDC6A4;}
	.st11{fill:#DBA983;}
	.st12{fill:#012A44;}
	.st13{fill:#E8E9EB;}
	.st14{fill:#126888;}
	.st15{fill:#0E576C;}
</style>
<g>
	<g>
		<path class="st0" d="M501.3,421c6.3-42.5,25.9-82.2,40.5-122.8c16-44.7,25.8-95.6,5.5-138.5c-12.2-25.8-33.9-45.6-55-64.8
			C458,63.9,422,32,377.4,20.2c-76.9-20.2-157,26.1-209.6,85.9C104.7,177.9,67,271.6,62.7,367.1c-0.8,17.6,0.8,37.2,6.7,53.9H501.3z
			"/>
		<path class="st1" d="M461.7,413.4H108.3c-21.5,0-43.1,2.6-63.8,8.4c-22,6.1-34.5,13.1-34.5,20.5c0,23.4,123.1,42.3,275,42.3
			s275-18.9,275-42.3c0-7.4-12.5-14.4-34.5-20.5C504.7,416.1,483.2,413.4,461.7,413.4z"/>
	</g>
	<g>
		<g>
			<g>
				<g>
					<g>
						<g>
							<rect x="136.1" y="297.5" class="st2" width="4" height="142.1"/>
							<path class="st3" d="M145.4,441.7c-5.1,1.4-10.1,1.4-15.1,0l4.6-14.4h5.9L145.4,441.7z"/>
						</g>
						<g>
							<rect x="380.6" y="298.4" class="st2" width="4" height="142.1"/>
							<path class="st3" d="M390.2,441.7c-5.1,1.4-10.1,1.4-15.1,0l4.6-14.4h5.9L390.2,441.7z"/>
						</g>
						<g>
							<rect x="426.5" y="275" class="st2" width="4" height="142.1"/>
							<path class="st3" d="M434.2,421.2c-4.1,1.1-8.2,1.1-12.2,0l3.7-11.6h4.8L434.2,421.2z"/>
						</g>
						<polygon class="st3" points="477.5,259.1 176.9,259.1 65.3,294.6 65.3,301.9 422.5,301.9 477.5,266.5 						"/>
						<g>
							<g>
								<polygon class="st2" points="477.5,259.1 176.9,259.1 65.3,294.6 422.5,294.6 								"/>
							</g>
						</g>
						<rect x="292.4" y="246.1" class="st2" width="4.3" height="11.4"/>
						<g>
							<rect x="181.6" y="275" class="st2" width="4" height="142.1"/>
							<path class="st3" d="M189.4,421.2c-4.1,1.1-8.2,1.1-12.2,0l3.7-11.6h4.8L189.4,421.2z"/>
						</g>
					</g>
					<g>
						<polygon class="st4" points="334.2,241.7 329.8,247.7 260.9,241.7 231.8,150.2 235.9,144.2 309.1,144.2 						"/>
						<polygon class="st5" points="329.7,247.7 256.5,247.7 231.5,150.2 304.7,150.2 						"/>
						<polygon class="st1" points="320.3,241.1 261.2,241.1 240.5,159 299.6,159 						"/>
						<polygon class="st2" points="265.8,236.5 246.3,159 240.5,159 261.2,241.1 320.3,241.1 319.1,236.5 						"/>
					</g>
				</g>
				<g>
					<g>
						<polygon class="st4" points="481.5,169.2 477.1,163.2 408.3,169.2 379.2,260.6 383.3,266.7 456.5,266.7 						"/>
						<polygon class="st5" points="477.1,163.2 403.9,163.2 378.8,260.7 452.1,260.7 						"/>
						<polygon class="st1" points="467.6,169.7 408.5,169.7 387.8,251.9 446.9,251.9 						"/>
						<polygon class="st2" points="413.2,174.4 393.6,251.9 387.8,251.9 408.5,169.7 467.6,169.7 466.5,174.4 						"/>
					</g>
					<g>
						<polygon class="st4" points="461.2,169.2 456.8,163.2 388,169.2 358.9,260.6 363,266.7 436.2,266.7 						"/>
						<polygon class="st5" points="456.8,163.2 383.6,163.2 358.6,260.7 431.8,260.7 						"/>
						<polygon class="st1" points="447.3,169.7 388.2,169.7 367.6,251.9 426.7,251.9 						"/>
						<polygon class="st2" points="392.9,174.4 373.4,251.9 367.6,251.9 388.2,169.7 447.3,169.7 446.2,174.4 						"/>
					</g>
				</g>
				<g>
					<polygon class="st6" points="340.2,257.6 250.8,257.4 199,284.5 291.9,284.5 					"/>
					<path class="st2" d="M282.2,266.8c7-0.6,11.9-2,11.9-3.6c0-2.2-8.9-3.9-19.8-3.9s-19.8,1.8-19.8,3.9c0,1.3,3.4,2.5,8.6,3.2
						c-10.3,0.4-18.5,1.8-21.7,3.6c-0.5,0-1,0-1.6,0c-6.5,0-11.7,1.2-11.7,2.7s5.3,2.7,11.7,2.7c2.4,0,4.6-0.2,6.4-0.4
						c5.4,1.3,13.9,2.1,23.5,2.1c16.4,0,29.7-2.4,29.7-5.4C299.4,269.5,292.3,267.7,282.2,266.8z"/>
				</g>
			</g>
			<g>
				<g>
					<rect x="342.3" y="201.4" class="st7" width="6.4" height="60.4"/>
					<rect x="346.3" y="198.9" class="st2" width="20.5" height="65.5"/>
					<g>
						<path class="st8" d="M349.7,202.6c0,0.6-0.5,1.1-1.1,1.1s-1.1-0.5-1.1-1.1s0.5-1.1,1.1-1.1S349.7,202,349.7,202.6z"/>
						<path class="st8" d="M349.7,232.2c0,0.6-0.5,1.1-1.1,1.1s-1.1-0.5-1.1-1.1s0.5-1.1,1.1-1.1
							C349.2,231.1,349.7,231.6,349.7,232.2z"/>
						<path class="st8" d="M349.7,258.9c0,0.6-0.5,1.1-1.1,1.1s-1.1-0.5-1.1-1.1s0.5-1.1,1.1-1.1S349.7,258.3,349.7,258.9z"/>
					</g>
				</g>
				<g>
					<path class="st9" d="M375,272.6c-7,2.3-14.4,2.1-22.1,0v-25c7.8-1.6,15.2-1.6,22.1,0V272.6z"/>
					<path class="st1" d="M364,246.4c-1.8,0-3.6,0.1-5.4,0.3v27c1.8,0.3,3.6,0.4,5.4,0.4V246.4z"/>
					<path class="st1" d="M357,247c-1,0.1-2,0.2-2.9,0.4v25.5c1,0.3,2,0.5,2.9,0.6V247z"/>
					<ellipse class="st2" cx="364.5" cy="248.1" rx="9.1" ry="0.9"/>
					<g>
						<path class="st7" d="M371.8,248.6c-1.7-0.2-4.3-0.4-7.3-0.4s-5.7,0.2-7.3,0.4c1.7,0.2,4.3,0.4,7.3,0.4
							S370.1,248.9,371.8,248.6z"/>
					</g>
				</g>
				<g>
					<path class="st9" d="M357.5,280.2c-7,2.3-14.4,2.1-22.1,0v-25c7.8-1.6,15.2-1.6,22.1,0V280.2z"/>
					<g>
						<path class="st1" d="M346.4,254.1c-1.7,0-3.5,0.1-5.3,0.3v27c1.8,0.3,3.6,0.4,5.3,0.4V254.1z"/>
						<path class="st1" d="M338.6,254.7c-0.6,0.1-1.2,0.1-1.8,0.2v25.6c0.6,0.1,1.2,0.3,1.8,0.4V254.7z"/>
					</g>
					<path class="st2" d="M356,255.7c0,0.5-4.1,0.9-9.1,0.9s-9.1-0.4-9.1-0.9s4.1-0.9,9.1-0.9C351.9,254.7,356,255.2,356,255.7z"/>
					<g>
						<path class="st7" d="M354.2,256.2c-1.7-0.2-4.3-0.4-7.3-0.4s-5.7,0.2-7.3,0.4c1.7,0.2,4.3,0.4,7.3,0.4
							C349.9,256.6,352.6,256.5,354.2,256.2z"/>
					</g>
				</g>
			</g>
		</g>
		<g>
			<g>
				<g>
					<g>
						<g>
							<path class="st10" d="M225.2,78.5c0.8,4.6-0.5,9.6-3.3,13.2c-1.8,8.7-8.8,16-17.1,17.8c-7.8-3.4-13.2-12.2-12.7-21
								s6.7-17,14.8-19.4c4.5-1.3,9.9-0.8,13.1,2.7L225.2,78.5z"/>
						</g>
					</g>
				</g>
				<g>
					<g>
						<g>
							<path class="st11" d="M212.2,68.4c-1.8-0.1-3.5,0.2-5.2,0.7c-8.1,2.4-14.4,10.6-14.8,19.4c-0.5,8.8,4.9,17.7,12.7,21
								c0.8-0.2,1.6-0.4,2.3-0.7C204.3,94.8,204,79.6,212.2,68.4z"/>
						</g>
					</g>
				</g>
				<g>
					<g>
						<g>
							<path class="st10" d="M174.2,115.2c-0.9-1-0.1-2.5,0.7-3.6c6.4-8.6,11-18,12.6-28.6c6.5,2.7,13,3.9,20,5
								c-2.9,11.6-5,23.4-6.1,35.3c-8.6-2.5-17.2-4.9-25.8-7.4C175.1,115.8,174.6,115.6,174.2,115.2z"/>
						</g>
					</g>
				</g>
				<path class="st12" d="M230.8,77.5c3.8-1.2,6.9-4.7,7.6-8.6c-2.6,1.4-5.6,1.8-8.5,1.1c0.8,0,1.6-0.3,2.2-0.9
					c-3.4-0.2-6.5-1.9-9.2-3.9s-5.2-4.4-8-6.2s-6.2-3.1-9.6-2.5c-0.4,0.1-0.8,0.2-1.2,0.3c-1.9-0.2-3.9-0.2-5.8,0.3
					c-6.4,1.7-11,7.8-12.5,14.3c-1.4,6.5-2.2,14.1-0.4,20.5c6.6,3.1,16.2,2.9,23.1,0.8c1-0.3,1.9-0.6,2.8-1c0.4-1.3,0.6-2.6,0.8-3.9
					c0.3-1.5,0.7-3.1,1.8-4.3c1.1-1.1,3-1.6,4.2-0.7c0.8,0.6,1.2,1.6,1.3,2.7c0,0.5,0,0.9-0.1,1.4c1.4-1.2,2.6-2.4,3.8-3.8
					c4.7,0.4,9.6-1.9,12.1-5.9C233.9,77.5,232.3,77.6,230.8,77.5z"/>
				<g>
					<g>
						<path class="st11" d="M216.6,88c0.2-0.3,0.6-0.5,0.9-0.8c0.7-0.6,1-1.6,0.7-2.4s-1.3-1.3-2.2-1c-0.8,0.3-1.2,1.2-1.2,2.1
							s0.3,1.8,0.6,2.7c-0.4-0.3-0.9-0.3-1.3,0c-0.4,0.3-0.5,0.8-0.3,1.2c0.1,0.3,0.4,0.5,0.6,0.8c0.2,0.3,0.4,0.6,0.2,0.9
							c-0.1,0.2-0.2,0.3-0.3,0.5s-0.1,0.4,0.1,0.5c0.1,0,0.2,0,0.3-0.1c0.8-0.6,1.4-1.6,1.5-2.6C216.3,89.1,216.2,88.4,216.6,88z"/>
					</g>
				</g>
				<g>
					<g>
						<path class="st1" d="M213.4,65.7c0.8,0.5,0.7,1.7,1.3,2.4c0.7,0.8,1.9,0.6,3,0.6c1.9,0,3.7,1,5.1,2.4c1.4,1.3,2.4,3,3.4,4.6
							c0.7-1.1,1.4-2.1,2-3.2c-6.9-4-13.8-8-20.7-12c0.3,1.7,0.7,3.4,1,5.1c0.1,0.3,0.1,0.6,0.3,0.9c0.5,0.6,1.5,0.3,2.2-0.1
							C211.8,65.8,212.7,65.3,213.4,65.7z"/>
					</g>
				</g>
			</g>
			<g>
				<path class="st11" d="M236.5,236.6c-0.4-3.1-1.9-5.9-3.3-8.7c-0.5-1-1-2-1.8-2.8c-1.4-1.5-3.5-1.9-5.5-2.5s-4-1.5-5-3.3
					c-2,1.7-4.5,2.9-7,3.5c-0.7,4.4,0.9,9,4.2,12c0,0,0,0,0.1,0c0.5,2.6,0.6,5.1-0.6,6.9c-0.4,0.7-0.1,2.1,0,2.8
					c0.2,0.8,1,1.3,1.7,1.7c0.8-2.5,2.3-5.7,2.1-8.7c0-0.6-0.1-1.4-0.1-2.2c0.8,1.2,1.4,2.6,1.7,4.1c0.2,0.8,0.4,1.8,0.2,2.5
					c-0.3,0.8-0.7,1.7-0.9,2.5c-0.4,1.4-0.1,2.8,1,3.7c0.9-2.1,2.6-3.3,3-5.3c0.2-0.8-0.2-1.8-0.1-2.6c0.1-0.8,0.3-1.9,0.2-2.7
					c-0.1-1-0.5-2-1-3.1c0.5,0.8,1.1,1.5,1.6,2.2c1.4,2,2.2,4.5,2.1,6.9c0,0.9-0.1,1.9,0.1,2.8c0.2,0.9,0.9,1.8,1.9,1.9
					c0.8-2.2,1.3-6.9,1.3-6.9l-0.9-5.1c0,0-0.2-1.3-0.6-2.9c1.7,2.2,2.7,4.9,2.7,7.7c0,0.9-0.1,1.9,0.2,2.8c0.3,0.9,1.1,1.7,2.1,1.6
					C236.4,242.6,237,239.6,236.5,236.6z"/>
				<path class="st10" d="M234.3,223.7c-0.9-0.6-2-1-3-1.4c-1.8-0.6-3.7-1.1-5.6-1.5c-15-13.9-28.4-36.6-33-56.1
					c-3.4-14.1-3.7-28.8-4-43.4l-11.2-8.3c-5.5-2.3-12.1,0.8-15.5,5.7s-4.2,11.1-4.4,17c-0.5,16.5,3.7,27.7,9.9,43
					c2.4,6.1,7,13.9,11,19c10.1,13,20.4,25.6,35.8,31.5c2.5,1.3,6.2,2.9,9.4,0.4c1.9,1.7,4.5,2.6,7.1,2.2c1.1-0.1,2.1-0.4,3.2-0.3
					c1.6,0.2,2.7,1.5,4.1,2.2s3.4,0.9,4.2-0.5C238.6,231.2,237.8,226.1,234.3,223.7z"/>
				<g>
					<g>
						<path class="st2" d="M202.3,189.5c-4.3-8.2-7.7-16.7-9.7-24.7c-3.4-14.1-3.7-28.8-4-43.4l-11.2-8.3
							c-5.5-2.3-12.1,0.8-15.5,5.7c-3.4,4.9-4.2,11.1-4.4,17c-0.5,16.5,3.7,27.7,9.9,43c2.4,6.1,7,13.9,11,19
							c6.5,8.3,13,16.4,20.9,22.8C203.1,212.6,198.2,199.4,202.3,189.5z"/>
					</g>
				</g>
			</g>
			<g>
				<g>
					<g>
						<g>
							<path class="st12" d="M137.5,449c-1.7-1-4.5-1.3-6.5-1.5s-3.6-0.8-5.3-1.8c-1.7-1-3-3-2.6-4.9c-5.1-0.4-8.9-2-13.4-4.5
								c0,3.7-2.4,7-3.4,10.5c-0.2,0.8-0.2,1.9-0.2,2.9c-0.5,2.4-0.3,4.9,0.5,7.2c4.2,2.4,9.2,3.4,14,2.8c0.1-0.8,0.3-1.6,0.6-2.3
								c2.6-0.6,4.4-1,6.8-0.6c2.5,0.4,3.4,0.9,5.1,0.7c1.4-0.1,2.1-0.8,3.4-1.4c1.3-0.6,2.9-2.1,3.2-3.4
								C140.2,450.7,139.2,450,137.5,449z"/>
						</g>
					</g>
					<g>
						<g>
							<path class="st13" d="M122.2,444.1c-3.7-1.8-7.5-3.5-11.6-4.4c-0.5,0.8-1,1.6-1.3,2.5c-0.2,0.9-0.2,2,0.4,2.7
								c0.5,0.7,1.4,1.1,2.3,1.3C115.5,447.1,119.4,446.3,122.2,444.1z"/>
						</g>
					</g>
					<g>
						<g>
							<g>
								<path class="st14" d="M124.2,223.1c-13.7,37.9-3.6,57.2-2,86.9c1.7,31.7,5.1,59.1-6.5,88.7c-1.9,4.7-4.4,21.7-6.8,27.8
									c-1.9,4.7-3.8,7.2-1,11.4c2.8,4.2,11.8,8.8,16.4,6.7c12.9-33.3,28.2-65.7,40.2-99.4c11.9-33.3,21.2-75,20.7-110.5
									L124.2,223.1z"/>
							</g>
						</g>
					</g>
					<g>
						<g>
							<g>
								<path class="st15" d="M140.3,226.1c-15.3,42.2,0.1,94.3-3.5,136.9c-2.6,28.5-9.5,55.5-19.4,81.3c2.6,0.8,5.1,1.1,6.9,0.2
									c12.9-33.3,28.2-65.7,40.2-99.4c10.9-30.4,18.8-75.9,19.7-110.7L140.3,226.1z"/>
							</g>
						</g>
					</g>
					<g>
						<g>
							<g>
								<path class="st12" d="M138.3,225.8c-22.2,50.8,14.8,107.7,3.6,160.8c-1.3,7.5-2,15.6-3.5,23.5c9.1-21.5,18.3-42.9,26.1-64.9
									c11.2-31.2,20.5-75.6,21.3-110.4L138.3,225.8z"/>
							</g>
						</g>
					</g>
				</g>
				<g>
					<g>
						<g>
							<path class="st12" d="M193.5,451.7c-0.9-2-3.1-3.1-5.2-3.4c-2.1-0.3-4.3,0-6.5,0c-8.6,0.1-16.9-4.3-25.4-3
								c0,3.6-0.6,7.3-0.2,10.9c0.1,0.7,0.2,1.3,0.4,2c0.1,1.9,0.4,3.7,0.7,5.5c0.2,1,0.4,2,0.9,2.7c0.7,1,2,1.5,3.2,1.8
								c4.6,1.2,9.8,0.4,13.7-2.3c0.5-0.3,0.9-0.7,1.2-1.2c0.2-0.4,0.2-0.8,0.3-1.2c1.3-0.5,2.6-1,3.9-1.4c3.1-0.9,4.4-1.2,7.2-2.7
								C190.5,458,194.8,454.7,193.5,451.7z"/>
						</g>
					</g>
					<g>
						<g>
							<path class="st13" d="M177,450.3c0.7-0.2,1.5,0.3,1.7,1s-0.2,1.5-0.7,2s-1.3,0.8-2,1c-3.1,1-6.4,1.1-9.6,1.1
								c-1.9,0-3.9-0.1-5.7-0.8c-1.8-0.7-3.4-2.1-3.9-4s0.5-4.1,2.4-4.7L177,450.3z"/>
						</g>
					</g>
					<g>
						<g>
							<g>
								<path class="st14" d="M131.5,224.5c-7.7,46,3.3,59.2,15.5,99c3.9,12.9,10.2,45.5,8.5,58.7c-1.8,13.3,0,36.6,0.4,66.7
									c7.4,5.3,13,4.8,21.1,2.8c4.9-35.5,10.8-72,11.9-105.8c1-31.6-1.4-74.2-2-110.9L131.5,224.5z"/>
							</g>
						</g>
					</g>
					<g>
						<g>
							<g>
								<path class="st15" d="M156.4,229.2l-25-4.7c-7.7,46,3.3,59.2,15.5,99c3.9,12.9,10.2,45.5,8.5,58.7
									c-1.8,13.3,0,36.6,0.4,66.7c3.5,2.5,6.6,3.7,9.7,4.1c3-37.3,5.3-74.5,2.4-112.3C164.9,306.8,150.6,264.6,156.4,229.2z"/>
							</g>
						</g>
					</g>
				</g>
			</g>
			<g>
				<g>
					<g>
						<g>
							<path class="st5" d="M164.6,111c3.9-2.4,7-6,8.9-10.2c14,0.8,27.3,9.4,33.8,21.7c-5.8-2.2-11.5-4.4-17.3-6.5
								c-7.3-2.8-14.7-5.5-22.5-5.4L164.6,111z"/>
						</g>
					</g>
					<g>
						<g>
							<g>
								<g>
									<path class="st5" d="M187.2,240.5c0-1.2,0.1-2.5,0.1-3.8c0.5-15.5,2.8-21.7,3.2-26.4c0.9-11.7,4.6-15.5,10.4-25.7
										c4.4-7.7,11.1-20.8,15.7-28.5c4.6-7.6,7-17.7,2.4-25.3c-2.7-4.6-7.5-7.5-12.2-9.9s-9.5-4.6-14.4-6.5
										c-9.5-3.7-24.6-9.8-34.7-2.8c-5,3.5-10.9,10-14,15.2c-17.1,28.5-16.4,50.8-25.2,100c0,0.2-0.1,0.6-0.3,1
										c-0.8,2.4,0.6,5,3.1,5.7C142.9,239.3,165,241.4,187.2,240.5z"/>
								</g>
							</g>
						</g>
					</g>
					<g>
						<g>
							<path class="st12" d="M168.6,111.9c9.7,0.7,19.2,2.7,28.4,5.8c-8.1-5.4-17.6-8.4-27.3-8.7c-0.7,0-1.5,0-2.2,0.4
								c-0.6,0.4-1,1.3-0.6,1.9C167.3,111.8,168,111.8,168.6,111.9z"/>
						</g>
					</g>
					<g>
						<g>
							<g>
								<g>
									<path class="st4" d="M187.2,240.5c0-1.2,0.1-2.5,0.1-3.8c0.5-15.5,2.8-21.7,3.2-26.4c0.9-11.7,4.6-15.5,10.4-25.7
										c4.4-7.7,11.1-20.8,15.7-28.5c4.3-7.1,6.6-16.2,3.2-23.6c-36.3,19.3-45.8,68.7-45.3,108.2
										C178.8,240.8,183,240.7,187.2,240.5z"/>
								</g>
							</g>
						</g>
					</g>
					<g>
						<path class="st12" d="M179.2,240.2l-0.9-0.1c2.8-26.7,10.9-53.5,23.3-77.3l0.8,0.4C190,186.9,182,213.5,179.2,240.2z"/>
					</g>
				</g>
				<path class="st12" d="M209.4,168.4c-5.3-1.7-9.6-6.3-11-11.8c-1.4-5.4,0.3-11.5,4.1-15.5c-2.7,4.5-3.6,10-2.3,15.1
					C201.5,161.2,204.9,165.7,209.4,168.4z"/>
			</g>
			<g>
				<g>
					<g>
						<g>
							<path class="st10" d="M299.2,142.1c-0.2-0.8-0.8-1.6-1.7-1.8c-0.4-0.1-0.9,0-1.3-0.2c-0.7-0.3-1-1.3-1.7-1.5
								c-0.8-0.2-1.6,0.7-2.5,0.6c-0.9-0.1-1.3-1.3-2.1-1.6c-1.3-0.5-2.6,1.2-4,0.9c-0.9-0.2-1.5-1.1-2.4-1.2c-0.5,0-1,0.3-1.5,0.6
								c-1.9,1.3-3.7,2.8-5.3,4.5c-0.6-0.6-1.2-1.1-2-1.5c-0.8-0.3-1.7-0.3-2.3,0.3c-0.8,0.8-0.6,2-0.4,3.1c0.4,1.8,0.7,3.6,1.1,5.4
								c-5.7,6.4-12,12.3-18.7,17.7c-1.9-1.8-3.8-3.6-5.7-5.3c-2.5-2.4-4.5-4.5-6.3-6.6c-3.9,8.5-9.7,15.9-16.8,21.8
								c0.9,0.7,1.9,1.5,3.1,2.5c5.1,4.4,9.9,9.1,15.4,12.9c2.9,2,6.3,3.8,9.8,3.6c1.5,0.2,3,0.1,4.3-0.5c2.9-1.2,4.9-3.9,6.6-6.5
								c7.8-11.6,14.9-23.8,21.2-36.3c2.9-0.8,5.7-2.3,7.5-4.8c0.7-1,1.3-2.1,2.2-3c0.9-0.8,2.6-1.2,3.8-1.2
								C299.8,143.4,299.5,142.9,299.2,142.1z"/>
							<path class="st11" d="M249.2,183.9c-6.5-2.2-12.2-6.6-17.8-11.9c-1.8,2-3.7,3.8-5.8,5.5c0.9,0.7,1.9,1.5,3.1,2.5
								c5.1,4.4,9.9,9.1,15.4,12.9c2.9,2,6.3,3.8,9.8,3.6c1.5,0.2,3,0.1,4.3-0.5c2.9-1.2,4.9-3.9,6.6-6.5c7.3-10.9,14-22.3,20-34
								C272.8,165.5,265.9,189.4,249.2,183.9z"/>
							<path class="st5" d="M242.5,155.6c-7.7-8.8-10.8-15.6-21.2-25.7c-1-1-2.1-2-3.5-2.2c-1.7-0.3-3.4,0.6-4.8,1.6
								c-6.8,4.8-11.5,12.5-12.8,20.7c-0.7,4.3-0.3,9,2.2,12.6c2,2.8,5.1,4.5,8,6.2c8.1,4.7,9.8,4.3,15.4,8.6
								C232.7,171.6,238.5,164.2,242.5,155.6z"/>
						</g>
					</g>
				</g>
				<g>
					<g>
						<g>
							<path class="st4" d="M231.2,172.3c-10.2-7-20.8-11.9-30.8-23.5c-0.1,0.4-0.2,0.8-0.3,1.3c-0.7,4.3-0.3,9,2.2,12.6
								c2,2.8,5.1,4.5,8,6.2c8.1,4.7,9.8,4.3,15.4,8.6C227.6,175.8,229.4,174.1,231.2,172.3z"/>
						</g>
					</g>
				</g>
				<g>
					<path class="st12" d="M223.7,175.7l-0.6-0.7c6.7-6.5,12.3-14,16.8-22.1l0.8,0.4C236.1,161.6,230.4,169.1,223.7,175.7z"/>
				</g>
			</g>
		</g>
	</g>
</g>
</svg>
