<?xml version="1.0" encoding="utf-8"?>
<!-- Generator: Adobe Illustrator 25.2.0, SVG Export Plug-In . SVG Version: 6.00 Build 0)  -->
<svg version="1.1" id="Layer_1" xmlns="http://www.w3.org/2000/svg" xmlns:xlink="http://www.w3.org/1999/xlink" x="0px" y="0px"
	 viewBox="0 0 55 50" style="enable-background:new 0 0 55 50;" xml:space="preserve">
<style type="text/css">
	.st0{fill:url(#SVGID_1_);}
	.st1{fill:url(#SVGID_2_);}
	.st2{fill:url(#SVGID_3_);}
	.st3{fill:url(#SVGID_4_);}
	.st4{fill:url(#SVGID_5_);}
	.st5{fill:url(#SVGID_6_);}
</style>
<g>
	<linearGradient id="SVGID_1_" gradientUnits="userSpaceOnUse" x1="1.4405" y1="25.0293" x2="53.5" y2="25.0293">
		<stop  offset="0" style="stop-color:#AA0078"/>
		<stop  offset="0.1484" style="stop-color:#A60078"/>
		<stop  offset="0.3022" style="stop-color:#990078"/>
		<stop  offset="0.4585" style="stop-color:#850078"/>
		<stop  offset="0.6166" style="stop-color:#680078"/>
		<stop  offset="0.7761" style="stop-color:#420078"/>
		<stop  offset="0.9345" style="stop-color:#150078"/>
		<stop  offset="1" style="stop-color:#000078"/>
	</linearGradient>
	<path class="st0" d="M51,29.5l-4.3-0.7l-2.9-6.7c-0.1-1.3-1.2-2.2-2.4-2.2H30.7v-5.3c0-1.1-0.9-2-2-2h-9C19.2,6.9,13.4,2.7,7.3,5
		C5,5.8,3,7.6,2.1,10c-0.7,1.8-0.8,3.6-0.5,5.2v17.6l0,0v6.5c0,1.4,1.1,2.4,2.4,2.4h3.2v-0.5c0.4,2.5,2.5,4.5,5.3,4.5
		c2.4,0,4.6-1.8,5.2-4h17.9c0.6,2.3,2.6,4,5.2,4c2.6,0,4.9-2,5.3-4.5L46,41.7h5.5c1.1,0,2-0.9,2-2v-6.9C53.3,31.5,52.3,29.5,51,29.5
		z M10.3,6c4.4-0.2,8,3.4,7.8,7.8c-0.2,3.8-3.2,6.9-7.1,7.1c-4.4,0.2-8-3.4-7.8-7.8C3.4,9.4,6.4,6.2,10.3,6z M12.9,44
		c-2.2,0.2-4-1.6-3.9-3.7c0.1-1.9,1.6-3.3,3.4-3.3c2.2-0.1,3.9,1.8,3.7,3.9C15.9,42.4,14.6,43.8,12.9,44z M12.5,35.1
		c-2.7,0-5.1,2.2-5.3,4.8H4.1c-0.4,0-0.8-0.3-0.8-0.8v-6.5v-4V19c1.7,2.2,4.3,3.6,7.3,3.6c2.9,0,5.6-1.4,7.3-3.6h9.5v-1.8H19
		c0.5-1,0.7-2,0.8-3.1h8.4c0.4,0,0.8,0.3,0.8,0.8v5.7v12.1v7.2H17.8C17.6,37.2,15.4,35.1,12.5,35.1z M40.5,44
		c-1.8-0.1-3.1-1.6-3.3-3.3c-0.2-2.1,1.5-3.8,3.5-3.8s3.5,1.6,3.5,3.5C44.3,42.4,42.5,44.1,40.5,44z M50.9,40h-4.8
		c-0.2-2.7-2.5-4.8-5.3-4.8c-2.7,0-5.1,2.2-5.3,4.8h-4.7v-7.2V21.5h10.5c0.4,0,0.8,0.3,0.8,0.8c0,0.1,0,0.2,0.1,0.4l3.2,7.2
		c0.1,0.3,0.4,0.5,0.7,0.5l4.8,0.8H51c0.3,0.1,0.8,1,0.8,1.6v4H47v1.8h4.8v0.7C51.5,39.6,51.3,40,50.9,40z"/>
	<linearGradient id="SVGID_2_" gradientUnits="userSpaceOnUse" x1="33" y1="33.2" x2="35.5" y2="33.2">
		<stop  offset="0" style="stop-color:#AA0078"/>
		<stop  offset="0.1484" style="stop-color:#A60078"/>
		<stop  offset="0.3022" style="stop-color:#990078"/>
		<stop  offset="0.4585" style="stop-color:#850078"/>
		<stop  offset="0.6166" style="stop-color:#680078"/>
		<stop  offset="0.7761" style="stop-color:#420078"/>
		<stop  offset="0.9345" style="stop-color:#150078"/>
		<stop  offset="1" style="stop-color:#000078"/>
	</linearGradient>
	<path class="st1" d="M33.3,34.1h1.9c0.2,0,0.3-0.1,0.3-0.3v-1.2c0-0.2-0.1-0.3-0.3-0.3h-1.9c-0.2,0-0.3,0.1-0.3,0.3v1.2
		C33.1,34,33.3,34.1,33.3,34.1z"/>
	<linearGradient id="SVGID_3_" gradientUnits="userSpaceOnUse" x1="4.1" y1="24.7" x2="27.5" y2="24.7">
		<stop  offset="0" style="stop-color:#AA0078"/>
		<stop  offset="0.1484" style="stop-color:#A60078"/>
		<stop  offset="0.3022" style="stop-color:#990078"/>
		<stop  offset="0.4585" style="stop-color:#850078"/>
		<stop  offset="0.6166" style="stop-color:#680078"/>
		<stop  offset="0.7761" style="stop-color:#420078"/>
		<stop  offset="0.9345" style="stop-color:#150078"/>
		<stop  offset="1" style="stop-color:#000078"/>
	</linearGradient>
	<path class="st2" d="M26.6,23.8H5c-0.5,0-0.9,0.4-0.9,0.9l0,0c0,0.5,0.4,0.9,0.9,0.9h21.6c0.5,0,0.9-0.4,0.9-0.9l0,0
		C27.5,24.2,27.1,23.8,26.6,23.8z"/>
	<linearGradient id="SVGID_4_" gradientUnits="userSpaceOnUse" x1="4.1" y1="31.2" x2="27.5" y2="31.2">
		<stop  offset="0" style="stop-color:#AA0078"/>
		<stop  offset="0.1484" style="stop-color:#A60078"/>
		<stop  offset="0.3022" style="stop-color:#990078"/>
		<stop  offset="0.4585" style="stop-color:#850078"/>
		<stop  offset="0.6166" style="stop-color:#680078"/>
		<stop  offset="0.7761" style="stop-color:#420078"/>
		<stop  offset="0.9345" style="stop-color:#150078"/>
		<stop  offset="1" style="stop-color:#000078"/>
	</linearGradient>
	<path class="st3" d="M26.6,30.3H5c-0.5,0-0.9,0.4-0.9,0.9l0,0c0,0.5,0.4,0.9,0.9,0.9h21.6c0.5,0,0.9-0.4,0.9-0.9l0,0
		C27.5,30.7,27.1,30.3,26.6,30.3z"/>
	<linearGradient id="SVGID_5_" gradientUnits="userSpaceOnUse" x1="31.3" y1="27.1" x2="43.7" y2="27.1">
		<stop  offset="0" style="stop-color:#AA0078"/>
		<stop  offset="0.1484" style="stop-color:#A60078"/>
		<stop  offset="0.3022" style="stop-color:#990078"/>
		<stop  offset="0.4585" style="stop-color:#850078"/>
		<stop  offset="0.6166" style="stop-color:#680078"/>
		<stop  offset="0.7761" style="stop-color:#420078"/>
		<stop  offset="0.9345" style="stop-color:#150078"/>
		<stop  offset="1" style="stop-color:#000078"/>
	</linearGradient>
	<path class="st4" d="M41.2,24.5c-0.1-0.8-0.8-1.5-1.7-1.5H33c-0.9,0-1.7,0.8-1.7,1.7v4.8c0,0.9,0.8,1.7,1.7,1.7h9
		c0.9,0,1.7-0.8,1.7-1.7c0-0.1,0-0.3-0.1-0.4L41.2,24.5z M33.2,29.6l-0.1-4.8l6.4-0.1c0,0.1,0,0.3,0.1,0.4l2.2,4.4L33.2,29.6z"/>
	<linearGradient id="SVGID_6_" gradientUnits="userSpaceOnUse" x1="9.8" y1="10.65" x2="15.4" y2="10.65">
		<stop  offset="0" style="stop-color:#AA0078"/>
		<stop  offset="0.1484" style="stop-color:#A60078"/>
		<stop  offset="0.3022" style="stop-color:#990078"/>
		<stop  offset="0.4585" style="stop-color:#850078"/>
		<stop  offset="0.6166" style="stop-color:#680078"/>
		<stop  offset="0.7761" style="stop-color:#420078"/>
		<stop  offset="0.9345" style="stop-color:#150078"/>
		<stop  offset="1" style="stop-color:#000078"/>
	</linearGradient>
	<path class="st5" d="M15,12.6h-3c-0.2,0-0.4-0.2-0.4-0.4V7.4c0-0.2-0.2-0.4-0.4-0.4h-1C10,7,9.8,7.2,9.8,7.4v6.5
		c0,0.2,0.2,0.4,0.4,0.4H15c0.2,0,0.4-0.2,0.4-0.4V13C15.4,12.8,15.3,12.6,15,12.6z"/>
</g>
</svg>
