<?xml version="1.0" encoding="utf-8"?>
<!-- Generator: Adobe Illustrator 25.2.0, SVG Export Plug-In . SVG Version: 6.00 Build 0)  -->
<svg version="1.1" id="Layer_1" xmlns="http://www.w3.org/2000/svg" xmlns:xlink="http://www.w3.org/1999/xlink" x="0px" y="0px"
	 viewBox="0 0 55 50" style="enable-background:new 0 0 55 50;" xml:space="preserve">
<style type="text/css">
	.st0{fill:url(#SVGID_1_);}
	.st1{fill:url(#SVGID_2_);}
	.st2{fill:url(#SVGID_3_);}
</style>
<g id="Badge">
	<linearGradient id="SVGID_1_" gradientUnits="userSpaceOnUse" x1="16.775" y1="24.225" x2="38.1" y2="24.225">
		<stop  offset="0" style="stop-color:#AA0078"/>
		<stop  offset="0.1484" style="stop-color:#A60078"/>
		<stop  offset="0.3022" style="stop-color:#990078"/>
		<stop  offset="0.4585" style="stop-color:#850078"/>
		<stop  offset="0.6166" style="stop-color:#680078"/>
		<stop  offset="0.7761" style="stop-color:#420078"/>
		<stop  offset="0.9345" style="stop-color:#150078"/>
		<stop  offset="1" style="stop-color:#000078"/>
	</linearGradient>
	<path class="st0" d="M33.6,34.3c-0.2,0-0.2,0-0.4-0.1l-5.7-3l-5.7,3c-0.4,0.2-0.9,0.1-1.2-0.3c-0.1-0.2-0.1-0.3-0.1-0.5l1.1-6.4
		L17,22.5c-0.3-0.3-0.3-0.8,0-1.2c0.2-0.2,0.3-0.2,0.5-0.2l6.4-0.9l2.8-5.8c0.2-0.6,1.2-0.6,1.5,0l2.8,5.8l6.4,0.9
		c0.5,0.1,0.7,0.5,0.7,1c0,0.2-0.1,0.3-0.2,0.5l-4.6,4.5l1.1,6.4c0.1,0.5-0.2,0.9-0.7,1C33.7,34.3,33.6,34.3,33.6,34.3L33.6,34.3z
		 M19.5,22.4l3.7,3.6c0.2,0.2,0.2,0.5,0.2,0.7l-0.9,5.1l4.6-2.4c0.2-0.2,0.6-0.2,0.7,0l4.6,2.4l-0.9-5.1c-0.1-0.2,0.1-0.6,0.2-0.7
		l3.7-3.6l-5-0.7c-0.2,0-0.5-0.2-0.7-0.5l-2.3-4.6l-2.3,4.6c-0.1,0.2-0.3,0.4-0.7,0.5L19.5,22.4z"/>
	<linearGradient id="SVGID_2_" gradientUnits="userSpaceOnUse" x1="12.3" y1="25" x2="42.7" y2="25">
		<stop  offset="0" style="stop-color:#AA0078"/>
		<stop  offset="0.1484" style="stop-color:#A60078"/>
		<stop  offset="0.3022" style="stop-color:#990078"/>
		<stop  offset="0.4585" style="stop-color:#850078"/>
		<stop  offset="0.6166" style="stop-color:#680078"/>
		<stop  offset="0.7761" style="stop-color:#420078"/>
		<stop  offset="0.9345" style="stop-color:#150078"/>
		<stop  offset="1" style="stop-color:#000078"/>
	</linearGradient>
	<path class="st1" d="M27.5,40.2c-8.4,0-15.2-6.9-15.2-15.2S19.1,9.8,27.5,9.8S42.7,16.6,42.7,25S35.9,40.2,27.5,40.2z M27.5,11.4
		c-7.5,0-13.6,6-13.6,13.6s6,13.6,13.6,13.6s13.6-6,13.6-13.6l0,0C41.1,17.5,35,11.4,27.5,11.4L27.5,11.4z"/>
	<linearGradient id="SVGID_3_" gradientUnits="userSpaceOnUse" x1="5.575" y1="24.9163" x2="49.425" y2="24.9163">
		<stop  offset="0" style="stop-color:#AA0078"/>
		<stop  offset="0.1484" style="stop-color:#A60078"/>
		<stop  offset="0.3022" style="stop-color:#990078"/>
		<stop  offset="0.4585" style="stop-color:#850078"/>
		<stop  offset="0.6166" style="stop-color:#680078"/>
		<stop  offset="0.7761" style="stop-color:#420078"/>
		<stop  offset="0.9345" style="stop-color:#150078"/>
		<stop  offset="1" style="stop-color:#000078"/>
	</linearGradient>
	<path class="st2" d="M31.7,46.4c-0.5,0-1.1-0.2-1.5-0.4l-2.1-1.2c-0.4-0.2-0.9-0.2-1.3,0L24.7,46c-1.3,0.7-3.1,0.4-4-0.9l-1.3-1.9
		c-0.2-0.4-0.7-0.6-1.2-0.6l-2.4,0.1c-1.6,0.1-3-1-3.2-2.6l-0.4-2.3c-0.1-0.5-0.4-0.8-0.8-1.1l-2.2-0.9c-1.5-0.6-2.2-2.2-1.7-3.7
		L8.2,30c0.2-0.4,0-0.9-0.3-1.3l-1.5-1.6c-1.1-1.2-1.1-2.9,0-4.1L8,21.3C8.3,21,8.4,20.5,8.3,20l-0.7-2.2C7.2,16.2,8,14.7,9.4,14
		l2.2-0.9c0.4-0.2,0.7-0.6,0.8-1.1l0.4-2.3C13,8.1,14.4,7,16,7.1l2.3,0.2c0.5,0,0.9-0.2,1.2-0.6l1.3-1.9c0.9-1.3,2.6-1.7,4-0.9
		l2,1.1c0.4,0.2,0.9,0.2,1.3,0l2.1-1.2c1.3-0.7,3.1-0.4,4,0.9l1.3,1.9c0.2,0.4,0.7,0.6,1.2,0.6l2.4-0.1c1.6-0.1,3,1,3.2,2.6l0.4,2.3
		c0.1,0.5,0.4,0.8,0.8,1.1l2.2,0.9c1.5,0.6,2.2,2.2,1.7,3.7L46.8,20c-0.2,0.4,0,0.9,0.3,1.3l1.5,1.6c1.1,1.2,1.1,2.9,0,4.1L47,28.7
		c-0.3,0.3-0.4,0.8-0.3,1.3l0.7,2.2c0.4,1.5-0.3,3.1-1.7,3.7l-2.2,0.9c-0.4,0.2-0.7,0.6-0.8,1.1l-0.4,2.3C42,41.9,40.6,43,39,42.9
		l-2.3-0.2c-0.5,0-0.9,0.2-1.2,0.6l-1.3,1.9C33.6,45.9,32.7,46.4,31.7,46.4z M27.5,43c0.5,0,1.1,0.2,1.5,0.4l2.1,1.2
		c0.6,0.3,1.4,0.2,1.8-0.4l1.3-1.9c0.6-0.8,1.7-1.3,2.6-1.3l2.3,0.2c0.7,0.1,1.3-0.4,1.4-1.2l0.4-2.3c0.2-1.1,0.9-1.9,1.9-2.3
		l2.2-0.9c0.7-0.2,1-1,0.8-1.7l-0.7-2.2c-0.3-1-0.1-2.2,0.7-2.9l1.6-1.7l0,0c0.5-0.5,0.5-1.3,0-1.8l-1.6-1.7c-0.7-0.8-1-1.9-0.7-2.9
		l0.7-2.2c0.2-0.7-0.2-1.4-0.8-1.7l-2.2-0.9c-1-0.4-1.7-1.3-1.8-2.3L40.7,10c-0.2-0.7-0.7-1.2-1.5-1.2L36.9,9
		c-1.1,0.1-2.1-0.4-2.6-1.3L33,5.8c-0.4-0.6-1.2-0.7-1.8-0.4L29,6.5c-0.9,0.5-2.1,0.5-3,0l-2.1-1.2c-0.6-0.3-1.4-0.2-1.8,0.4
		l-1.3,1.9c-0.6,1-1.7,1.4-2.7,1.4l-2.3-0.2c-0.7,0-1.3,0.4-1.4,1.2L14,12.3c-0.2,1.1-0.9,1.9-1.8,2.3l-2.2,1c-0.7,0.2-1,1-0.8,1.7
		l0.7,2.2c0.3,1,0.1,2.2-0.7,2.9l-1.6,1.7c-0.5,0.5-0.5,1.3,0,1.8l1.6,1.7c0.7,0.8,1,1.9,0.7,2.9l-0.7,2.2C9,33.4,9.4,34.2,10,34.4
		l2.1,0.9c1,0.4,1.7,1.3,1.9,2.3l0.4,2.3c0.1,0.7,0.7,1.2,1.4,1.2l2.3-0.2c1.1-0.1,2.1,0.4,2.6,1.3l1.3,1.9c0.4,0.6,1.2,0.7,1.8,0.4
		l2.1-1.2C26.4,43.2,27,43,27.5,43z"/>
</g>
</svg>
