<?xml version="1.0" encoding="utf-8"?>
<!-- Generator: Adobe Illustrator 25.2.0, SVG Export Plug-In . SVG Version: 6.00 Build 0)  -->
<svg version="1.1" id="Layer_1" xmlns="http://www.w3.org/2000/svg" xmlns:xlink="http://www.w3.org/1999/xlink" x="0px" y="0px"
	 viewBox="0 0 570 500" style="enable-background:new 0 0 570 500;" xml:space="preserve">
<style type="text/css">
	.st0{fill:#C7D3DD;}
	.st1{fill:#FBECEC;}
	.st2{fill:#01414D;}
	.st3{fill:#FDD635;}
	.st4{fill:#366C70;}
	.st5{fill:#D94F8D;}
	.st6{fill:#92A1AD;}
	.st7{fill:#EAE6E3;}
	.st8{fill:#B1A7AC;}
	.st9{fill:#EDCEA0;}
	.st10{fill:#48BAEB;}
	.st11{fill:#FFFFFF;}
	.st12{fill:#C16339;}
	.st13{fill:#DBA983;}
	.st14{fill:#EDC6A4;}
	.st15{fill:#D88467;}
	.st16{fill:#012A44;}
	.st17{fill:#E8E9EB;}
	.st18{fill:#126888;}
	.st19{fill:#0E576C;}
	.st20{fill:#DC8455;}
</style>
<g>
	<g>
		<path class="st0" d="M459.5,428.9H96.7C43.4,435.7,10,445.4,10,456.3c0,20.5,120,37.2,268.1,37.2s268.1-16.6,268.1-37.2
			C546.2,445.4,512.8,435.7,459.5,428.9z"/>
		<g>
			<path class="st1" d="M499.2,436.4c5.7-46.5,27.2-89.8,43.1-134.1c16.8-46.7,27-100,5.7-144.9c-12.7-27-41-42.1-63.1-62.1
				c-35.8-32.4-67.8-71.4-114.5-83.7C290-9.6,206.2,38.9,151.2,101.4c-66,75.1-105.5,173.1-109.9,273c-0.9,20.5,1.2,43.3,9.2,62
				H499.2z"/>
		</g>
	</g>
	<g>
		<g>
			<g>
				<g>
					<g>
						<g>
							<g>
								<path class="st2" d="M427,280.7c0,6.1-5,11-11.1,11l-288.5-2.2c-6.1,0-11-5-11-11.1l0,0c0-6.1,5-11,11.1-11l288.5,2.2
									C422.1,269.6,427,274.6,427,280.7L427,280.7z"/>
								<path class="st3" d="M425.2,281.2c0,4.5-3.7,8.2-8.2,8.1c-4.5,0-8.2-3.7-8.1-8.2c0-4.5,3.7-8.2,8.2-8.1
									C421.6,273,425.2,276.7,425.2,281.2z"/>
							</g>
							<g>
								<path class="st2" d="M426.6,323.1c0,6.1-5,11-11.1,11L127,331.8c-6.1,0-11-5-11-11.1l0,0c0-6.1,5-11,11.1-11l288.5,2.2
									C421.8,312,426.7,316.9,426.6,323.1L426.6,323.1z"/>
								<path class="st3" d="M424.9,322.7c0,4.5-3.7,8.2-8.2,8.1c-4.5,0-8.2-3.7-8.1-8.2c0-4.5,3.7-8.2,8.2-8.1
									C421.3,314.5,424.9,318.2,424.9,322.7z"/>
							</g>
						</g>
						<g>
							<g>
								
									<rect x="19.9" y="305.5" transform="matrix(7.546195e-03 -1 1 7.546195e-03 -160.6367 467.8656)" class="st4" width="270.9" height="18.8"/>
								
									<rect x="26.6" y="312.2" transform="matrix(7.536531e-03 -1 1 7.536531e-03 -154.0862 474.578)" class="st2" width="270.9" height="5.4"/>
							</g>
							<g>
								
									<rect x="292.4" y="307.6" transform="matrix(7.525752e-03 -1 1 7.525752e-03 107.7166 742.459)" class="st4" width="270.9" height="18.8"/>
								
									<rect x="298.6" y="313.7" transform="matrix(7.544113e-03 -1 1 7.544113e-03 113.7705 748.6443)" class="st2" width="270.9" height="6.6"/>
							</g>
							<g>
								<path class="st4" d="M465.5,460.2l-85.9-0.6l0.1-11.9c0-4,3.3-7.1,7.2-7.1l71.6,0.5c4,0,7.1,3.3,7.1,7.2L465.5,460.2z"/>
								<g>
									<path class="st2" d="M465.5,460.2l-57.9-0.4l0.1-11.9c0-4,3.3-7.1,7.2-7.1l43.6,0.3c4,0,7.1,3.3,7.1,7.2L465.5,460.2z"/>
								</g>
							</g>
							<g>
								<path class="st4" d="M193.2,458.2l-85.9-0.6l0.1-11.9c0-4,3.3-7.1,7.2-7.1l71.6,0.5c4,0,7.1,3.3,7.1,7.2L193.2,458.2z"/>
								<g>
									<path class="st2" d="M193.2,458.2l-57.9-0.4l0.1-11.9c0-4,3.3-7.1,7.2-7.1l43.6,0.3c4,0,7.1,3.3,7.1,7.2L193.2,458.2z"/>
								</g>
							</g>
						</g>
						<g>
							<g>
								<path class="st5" d="M151.2,236.2l0.7-90.5c-7.8-2.4-16.8-0.5-23.4,3.8c-6.8,4.3-11.3,10.7-14.6,17.4
									c-3.3,6.7-5.5,13.7-8.5,20.4c-3.7,8.4-8.7,16.4-11.5,25c-2.5,7.7-2.9,16.3,0.8,23.5L151.2,236.2z"/>
								<path class="st2" d="M156.9,236.2l0.7-90.5c-7.8-2.4-16.8-0.5-23.4,3.8c-6.8,4.3-11.3,10.7-14.6,17.4
									c-3.3,6.7-5.5,13.7-8.5,20.4c-3.7,8.4-7.9,16.7-11.5,25c-3.4,7.9-4.2,16.5,0.8,23.5L156.9,236.2z"/>
								<path class="st6" d="M448.3,234.9l-333-2.5c0,0-2.1-24.3,1.8-42.1c4.3-19.8,25.9-41.7,25.9-41.7l305.9,2.3L448.3,234.9z"/>
								<g>
									<path class="st7" d="M409.6,163.9l-270.8-2c-0.5,0-1-0.4-1-1c0-0.5,0.4-1,1-1l270.8,2c0.5,0,1,0.4,1,1
										C410.6,163.4,410.1,163.9,409.6,163.9z"/>
								</g>
								<g>
									<path class="st8" d="M417.9,150.7c0,0-21.6,21.9-25.9,41.7c-3.9,17.8-1.8,42.1-1.8,42.1l58.1,0.4l0.6-84L417.9,150.7z"/>
								</g>
								<path class="st5" d="M452.6,238.4l0.7-90.5c-7.8-2.4-16.8-0.5-23.4,3.8c-6.8,4.3-11.3,10.7-14.6,17.4
									c-3.3,6.7-5.5,13.7-8.5,20.4c-3.7,8.4-8.7,16.4-11.5,25c-2.5,7.7-2.9,16.3,0.8,23.5L452.6,238.4z"/>
								<path class="st2" d="M458.9,238.5l0.7-90.5c-7.8-2.4-16.8-0.5-23.4,3.8c-6.8,4.3-11.3,10.7-14.6,17.4
									c-3.3,6.7-5.5,13.7-8.5,20.4c-3.7,8.4-8.7,16.4-11.5,25c-2.5,7.7-2.9,16.3,0.8,23.5L458.9,238.5z"/>
							</g>
							
								<rect x="231.9" y="76" transform="matrix(7.533372e-03 -1 1 7.533372e-03 37.6607 460.8474)" class="st7" width="38.2" height="270.9"/>
							
								<rect x="236.4" y="86.8" transform="matrix(7.533224e-03 -1 1 7.533224e-03 33.9953 464.5152)" class="st2" width="29.3" height="256.7"/>
							
								<rect x="240.9" y="111.7" transform="matrix(7.532465e-03 -1 1 7.532465e-03 12.2895 481.9532)" class="st0" width="16.1" height="246.1"/>
						</g>
					</g>
					<g>
						<polygon class="st2" points="398.1,185.9 349.3,185.5 369.8,117.8 418.6,118.2 418.6,155.8 						"/>
						<polygon class="st9" points="384.4,185.8 335.6,185.4 356.1,117.7 404.9,118.1 						"/>
						<path class="st2" d="M380.5,179.8l-36.3-0.3c-1.3,0-2.2-1.2-1.8-2.4l15.8-52c0.2-0.8,1-1.3,1.8-1.3l36.3,0.3
							c1.3,0,2.2,1.2,1.8,2.4l-15.8,52C382,179.2,381.3,179.8,380.5,179.8z"/>
						<path class="st10" d="M381.5,179.8l-34.2-0.3c-1.2,0-2-1.2-1.7-2.3l14.9-49c0.2-0.8,0.9-1.3,1.7-1.3l34.2,0.3
							c1.2,0,2,1.2,1.7,2.3l-14.9,49C382.9,179.3,382.3,179.8,381.5,179.8z"/>
						<path class="st2" d="M359.8,126c0.4-0.3,0.9-0.4,1.4-0.4c5.1-0.4,10.2-0.5,15.3-0.3c1.4,0.1,3.1,0.4,3.3,1.8
							c0.1,0.6-0.2,1.2-0.4,1.8c-1.8,3.3-4.8,5.8-7.7,8.2c-8.3,7.1-15.9,15.2-22.5,24c3.4-11.3,6.8-22.6,10.2-34
							C359.3,126.7,359.5,126.3,359.8,126z"/>
					</g>
				</g>
				<g>
					<g>
						
							<rect x="490" y="125.4" transform="matrix(7.531108e-03 -1 1 7.531108e-03 316.9565 676.7754)" class="st4" width="18.8" height="106.6"/>
						
							<rect x="492.5" y="128" transform="matrix(7.531108e-03 -1 1 7.531108e-03 314.354 679.2679)" class="st2" width="13.7" height="106.6"/>
						
							<rect x="476.7" y="152.6" transform="matrix(7.535348e-03 -1 1 7.535348e-03 294.6737 709.8087)" class="st8" width="56.4" height="107.8"/>
						
							<rect x="458.9" y="152.4" transform="matrix(7.531775e-03 -1 1 7.531775e-03 277.1772 691.8781)" class="st4" width="56.4" height="107.8"/>
					</g>
					<g>
						<g>
							<path class="st2" d="M452.6,221c0,3.1-2.6,5.6-5.7,5.6l0,0c-3.1,0-5.6-2.6-5.6-5.7l0.2-25c0-3.1,2.6-5.6,5.7-5.6l0,0
								c3.1,0,5.6,2.6,5.6,5.7L452.6,221z"/>
							<path class="st2" d="M471.5,221.1c0,3.1-2.6,5.6-5.7,5.6l0,0c-3.1,0-5.6-2.6-5.6-5.7l0.2-25c0-3.1,2.6-5.6,5.7-5.6l0,0
								c3.1,0,5.6,2.6,5.6,5.7L471.5,221.1z"/>
							<path class="st2" d="M490.4,221.3c0,3.1-2.6,5.6-5.7,5.6l0,0c-3.1,0-5.6-2.6-5.6-5.7l0.2-25c0-3.1,2.6-5.6,5.7-5.6l0,0
								c3.1,0,5.6,2.6,5.6,5.7L490.4,221.3z"/>
							<path class="st2" d="M509.3,221.4c0,3.1-2.6,5.6-5.7,5.6l0,0c-3.1,0-5.6-2.6-5.6-5.7l0.2-25c0-3.1,2.6-5.6,5.7-5.6l0,0
								c3.1,0,5.6,2.6,5.6,5.7L509.3,221.4z"/>
							<path class="st2" d="M528.2,221.6c0,3.1-2.6,5.6-5.7,5.6l0,0c-3.1,0-5.6-2.6-5.6-5.7l0.2-25c0-3.1,2.6-5.6,5.7-5.6l0,0
								c3.1,0,5.6,2.6,5.6,5.7L528.2,221.6z"/>
						</g>
						<g>
							<path class="st5" d="M454.3,221c0,3.1-2.6,5.6-5.7,5.6l0,0c-3.1,0-5.6-2.6-5.6-5.7l0.2-25c0-3.1,2.6-5.6,5.7-5.6l0,0
								c3.1,0,5.6,2.6,5.6,5.7L454.3,221z"/>
							<path class="st10" d="M473.2,221.1c0,3.1-2.6,5.6-5.7,5.6l0,0c-3.1,0-5.6-2.6-5.6-5.7l0.2-25c0-3.1,2.6-5.6,5.7-5.6l0,0
								c3.1,0,5.6,2.6,5.6,5.7L473.2,221.1z"/>
							<path class="st3" d="M492.1,221.3c0,3.1-2.6,5.6-5.7,5.6l0,0c-3.1,0-5.6-2.6-5.6-5.7l0.2-25c0-3.1,2.6-5.6,5.7-5.6l0,0
								c3.1,0,5.6,2.6,5.6,5.7L492.1,221.3z"/>
							<path class="st2" d="M511,221.4c0,3.1-2.6,5.6-5.7,5.6l0,0c-3.1,0-5.6-2.6-5.6-5.7l0.2-25c0-3.1,2.6-5.6,5.7-5.6l0,0
								c3.1,0,5.6,2.6,5.6,5.7L511,221.4z"/>
							<path class="st8" d="M529.9,221.6c0,3.1-2.6,5.6-5.7,5.6l0,0c-3.1,0-5.6-2.6-5.6-5.7l0.2-25c0-3.1,2.6-5.6,5.7-5.6l0,0
								c3.1,0,5.6,2.6,5.6,5.7L529.9,221.6z"/>
						</g>
					</g>
				</g>
			</g>
			<g>
				<path class="st11" d="M363,220.2l-222.5-1.7c-22.7,58.4-2.3,128.3-27.5,186.1c78-0.4,155.9-0.7,233.9-1.1
					c8.8-45.5,11.6-92.2,8.4-138.4C354.3,249.6,353.1,232.2,363,220.2z"/>
				<g>
					<g>
						
							<rect x="158.2" y="278.8" transform="matrix(7.533398e-03 -1 1 7.533398e-03 -126.1119 445.5274)" class="st5" width="6.4" height="15"/>
						
							<rect x="178.2" y="279" transform="matrix(7.533392e-03 -1 1 7.533392e-03 -106.4635 465.6895)" class="st5" width="6.4" height="15"/>
						
							<rect x="198.3" y="279.2" transform="matrix(7.533398e-03 -1 1 7.533398e-03 -86.7166 485.952)" class="st5" width="6.4" height="15"/>
						
							<rect x="218.2" y="279.2" transform="matrix(7.533398e-03 -1 1 7.533398e-03 -66.9676 506.0157)" class="st5" width="6.4" height="15"/>
						
							<rect x="238.3" y="279.4" transform="matrix(7.533591e-03 -1 1 7.533591e-03 -47.2208 526.2784)" class="st5" width="6.4" height="15"/>
						
							<rect x="258.4" y="279.6" transform="matrix(7.533398e-03 -1 1 7.533398e-03 -27.4739 546.541)" class="st5" width="6.4" height="15"/>
						
							<rect x="278.4" y="279.7" transform="matrix(7.533398e-03 -1 1 7.533398e-03 -7.7248 566.6049)" class="st5" width="6.4" height="15"/>
						
							<rect x="298.5" y="279.9" transform="matrix(7.533591e-03 -1 1 7.533591e-03 12.0219 586.8674)" class="st5" width="6.4" height="15"/>
						
							<rect x="318.4" y="280.1" transform="matrix(7.533398e-03 -1 1 7.533398e-03 31.6704 607.0293)" class="st5" width="6.4" height="15"/>
					</g>
					<g>
						
							<rect x="158.1" y="292.2" transform="matrix(7.533398e-03 -1 1 7.533398e-03 -139.6767 458.7238)" class="st10" width="6.4" height="15"/>
						
							<rect x="178.1" y="292.4" transform="matrix(7.533398e-03 -1 1 7.533398e-03 -119.9299 478.9869)" class="st10" width="6.4" height="15"/>
						
							<rect x="198.1" y="292.6" transform="matrix(7.533591e-03 -1 1 7.533591e-03 -100.2816 499.1487)" class="st10" width="6.4" height="15"/>
						
							<rect x="218.2" y="292.7" transform="matrix(7.533392e-03 -1 1 7.533392e-03 -80.434 519.3129)" class="st10" width="6.4" height="15"/>
						
							<rect x="238.2" y="292.9" transform="matrix(7.533398e-03 -1 1 7.533398e-03 -60.7857 539.4752)" class="st10" width="6.4" height="15"/>
						
							<rect x="258.3" y="293" transform="matrix(7.533597e-03 -1 1 7.533597e-03 -41.0389 559.7378)" class="st10" width="6.4" height="15"/>
						
							<rect x="278.2" y="293.1" transform="matrix(7.533398e-03 -1 1 7.533398e-03 -21.2897 579.8013)" class="st10" width="6.4" height="15"/>
						
							<rect x="298.3" y="293.3" transform="matrix(7.533398e-03 -1 1 7.533398e-03 -1.5429 600.0642)" class="st10" width="6.4" height="15"/>
						
							<rect x="318.3" y="293.5" transform="matrix(7.533398e-03 -1 1 7.533398e-03 18.1053 620.2258)" class="st10" width="6.4" height="15"/>
					</g>
					<g>
						
							<rect x="158" y="305.7" transform="matrix(7.533398e-03 -1 1 7.533398e-03 -153.1429 472.0211)" class="st8" width="6.4" height="15"/>
						
							<rect x="178" y="305.8" transform="matrix(7.533403e-03 -1 1 7.533403e-03 -133.4945 492.1834)" class="st8" width="6.4" height="15"/>
						
							<rect x="198.1" y="306" transform="matrix(7.533591e-03 -1 1 7.533591e-03 -113.7478 512.446)" class="st8" width="6.4" height="15"/>
						
							<rect x="218.1" y="306.1" transform="matrix(7.533398e-03 -1 1 7.533398e-03 -93.9986 532.5094)" class="st8" width="6.4" height="15"/>
						
							<rect x="238.2" y="306.3" transform="matrix(7.533398e-03 -1 1 7.533398e-03 -74.2518 552.7725)" class="st8" width="6.4" height="15"/>
						
							<rect x="258.1" y="306.5" transform="matrix(7.533584e-03 -1 1 7.533584e-03 -54.6036 572.9343)" class="st8" width="6.4" height="15"/>
						
							<rect x="278.2" y="306.6" transform="matrix(7.533398e-03 -1 1 7.533398e-03 -34.7558 593.0984)" class="st8" width="6.4" height="15"/>
						
							<rect x="298.2" y="306.7" transform="matrix(7.533405e-03 -1 1 7.533405e-03 -15.1075 613.2607)" class="st8" width="6.4" height="15"/>
						
							<rect x="318.3" y="306.9" transform="matrix(7.533591e-03 -1 1 7.533591e-03 4.6392 633.5233)" class="st8" width="6.4" height="15"/>
					</g>
					<g>
						
							<rect x="157.9" y="319.1" transform="matrix(7.533591e-03 -1 1 7.533591e-03 -166.7079 485.2178)" class="st3" width="6.4" height="15"/>
						
							<rect x="177.9" y="319.3" transform="matrix(7.533398e-03 -1 1 7.533398e-03 -147.0594 505.3798)" class="st3" width="6.4" height="15"/>
						
							<rect x="198" y="319.5" transform="matrix(7.507778e-03 -1 1 7.507778e-03 -127.3075 525.6512)" class="st3" width="6.4" height="15"/>
						
							<rect x="217.9" y="319.5" transform="matrix(7.533591e-03 -1 1 7.533591e-03 -107.5631 545.7061)" class="st3" width="6.4" height="15"/>
						
							<rect x="238" y="319.7" transform="matrix(7.533398e-03 -1 1 7.533398e-03 -87.8163 565.9689)" class="st3" width="6.4" height="15"/>
						
							<rect x="258.1" y="319.9" transform="matrix(7.533398e-03 -1 1 7.533398e-03 -68.0695 586.2318)" class="st3" width="6.4" height="15"/>
						
							<rect x="278.1" y="320" transform="matrix(7.533398e-03 -1 1 7.533398e-03 -48.3205 606.2949)" class="st3" width="6.4" height="15"/>
						
							<rect x="298.2" y="320.2" transform="matrix(7.533398e-03 -1 1 7.533398e-03 -28.5736 626.5579)" class="st3" width="6.4" height="15"/>
						
							<rect x="318.1" y="320.4" transform="matrix(7.533398e-03 -1 1 7.533398e-03 -8.9253 646.7203)" class="st3" width="6.4" height="15"/>
					</g>
				</g>
				<path class="st10" d="M336.6,274.1L154,272.7c-0.6-20.2,2.1-38.7,10.7-54.4l180.7,1.4C337.2,237.1,334.6,255.3,336.6,274.1z"/>
			</g>
		</g>
		<g>
			<g>
				<path class="st12" d="M225.3,133.7c-3.9-8.3-8-16.6-12.6-24.6c-1.7-3-3.6-6-6.4-8c-2.8-1.9-8.1-3.5-10.8-1.4l-7.4,4
					c-4.5,6.2-3.3,14.8-1.2,22.1c3.5,12,9.2,23.4,16.4,33.7C215.4,154.1,224.5,143.5,225.3,133.7z"/>
				<path class="st13" d="M273.5,113.6c-12.7,16.6-22.7,27.4-39,40.4c-3-6.8-6.1-13.6-9.2-20.3c-0.8,9.8-9.8,20.5-21.9,25.8
					c9.4,13.2,21.6,24.5,35.7,32.6c12.2-9.2,22-21.3,30.1-34.3c8-13,8.2-22,14.6-35.9C279.9,119.4,277.4,116.1,273.5,113.6z"/>
				<g>
					<path class="st11" d="M336.5,143.8c0.9-4.8,2.9-9.5,3.3-14.4c0.6-7.3-2.4-14.4-3.7-21.6c-1.3-7.3-0.7-14.9,1.6-22h-55.2
						c-3.1,5.4-3.9,12-3.7,18.4c0.3,6.8,1.6,13.6,2,20.4c0.5,9.6-1.1,19.1-2,28.7c-0.7,7.1-0.9,14.3,0.2,21.3h61.8
						C337.5,164.6,334.5,154.1,336.5,143.8z"/>
					<g>
						<g>
							<g>
								<path class="st5" d="M293.3,103.9c-3.4,0-5.2,0-8.6,0c0.1-1.5,0.2-2.2,0.4-3.6c3.4,0,5.2,0,8.6,0
									C293.4,101.7,293.4,102.4,293.3,103.9z"/>
								<path class="st5" d="M304.8,103.9c-3.4,0-5.2,0-8.6,0c0.1-1.5,0.2-2.2,0.4-3.6c3.4,0,5.2,0,8.6,0
									C304.9,101.7,304.9,102.4,304.8,103.9z"/>
								<path class="st5" d="M316.3,103.9c-3.4,0-5.2,0-8.6,0c0.1-1.5,0.2-2.2,0.4-3.6c3.4,0,5.2,0,8.6,0
									C316.4,101.7,316.3,102.4,316.3,103.9z"/>
								<path class="st5" d="M327.8,103.9c-3.4,0-5.2,0-8.6,0c0.1-1.5,0.2-2.2,0.4-3.6c3.4,0,5.2,0,8.6,0
									C327.9,101.7,327.8,102.4,327.8,103.9z"/>
							</g>
							<g>
								<path class="st10" d="M293.4,111.6c-3.4,0-5.2,0-8.6,0c-0.2-1.5-0.2-2.2-0.2-3.7c3.4,0,5.2,0,8.6,0
									C293.2,109.4,293.3,110.2,293.4,111.6z"/>
								<path class="st10" d="M304.9,111.6c-3.4,0-5.2,0-8.6,0c-0.2-1.5-0.2-2.2-0.2-3.7c3.4,0,5.2,0,8.6,0
									C304.7,109.4,304.8,110.2,304.9,111.6z"/>
								<path class="st10" d="M316.4,111.6c-3.4,0-5.2,0-8.6,0c-0.2-1.5-0.2-2.2-0.2-3.7c3.4,0,5.2,0,8.6,0
									C316.2,109.4,316.3,110.2,316.4,111.6z"/>
								<path class="st10" d="M327.9,111.6c-3.4,0-5.2,0-8.6,0c-0.2-1.5-0.2-2.2-0.2-3.7c3.4,0,5.2,0,8.6,0
									C327.7,109.4,327.8,110.2,327.9,111.6z"/>
							</g>
							<g>
								<path class="st8" d="M294.9,119.4c-3.4,0-5.2,0-8.6,0c-0.4-1.5-0.6-2.2-0.8-3.7c3.4,0,5.2,0,8.6,0
									C294.3,117.2,294.5,117.9,294.9,119.4z"/>
								<path class="st8" d="M306.4,119.4c-3.4,0-5.2,0-8.6,0c-0.4-1.5-0.6-2.2-0.8-3.7c3.4,0,5.2,0,8.6,0
									C305.8,117.2,306,117.9,306.4,119.4z"/>
								<path class="st8" d="M317.9,119.4c-3.4,0-5.2,0-8.6,0c-0.4-1.5-0.6-2.2-0.8-3.7c3.4,0,5.2,0,8.6,0
									C317.3,117.2,317.5,117.9,317.9,119.4z"/>
								<path class="st8" d="M329.4,119.4c-3.4,0-5.2,0-8.6,0c-0.4-1.5-0.6-2.2-0.8-3.7c3.4,0,5.2,0,8.6,0
									C328.8,117.2,329,117.9,329.4,119.4z"/>
							</g>
							<g>
								<path class="st3" d="M297.6,127.1c-3.4,0-5.2,0-8.6,0c-0.6-1.4-0.9-2.2-1.4-3.6c3.4,0,5.2,0,8.6,0
									C296.7,124.9,296.9,125.6,297.6,127.1z"/>
								<path class="st3" d="M309.1,127.1c-3.4,0-5.2,0-8.6,0c-0.6-1.4-0.9-2.2-1.4-3.6c3.4,0,5.2,0,8.6,0
									C308.1,124.9,308.4,125.6,309.1,127.1z"/>
								<path class="st3" d="M320.6,127.1c-3.4,0-5.2,0-8.6,0c-0.6-1.4-0.9-2.2-1.4-3.6c3.4,0,5.2,0,8.6,0
									C319.6,124.9,319.9,125.6,320.6,127.1z"/>
								<path class="st3" d="M332.1,127.1c-3.4,0-5.2,0-8.6,0c-0.6-1.4-0.9-2.2-1.4-3.6c3.4,0,5.2,0,8.6,0
									C331.1,124.9,331.4,125.6,332.1,127.1z"/>
							</g>
						</g>
					</g>
				</g>
				<path class="st13" d="M277.3,121.9c-1.5,0.8-3.7,1-4.5-0.4c-0.3-0.5-0.4-1.1-0.5-1.7c-0.5-4.4-1-8.8-1.5-13.2
					c-0.1-0.9-0.2-1.9,0.1-2.7c0.4-1.3,1.7-2.2,2.5-3.4c0.7-1,1.1-2.3,1.8-3.3c2.7-3.6,9-2.1,12.1-5.4c0.9,1.3,0.3,3.2-0.8,4.4
					c-1.1,1.2-2.6,1.9-3.9,2.8s-2.6,2-2.9,3.6c-0.4,2.1,1,4,1.9,5.9c1,2.4,1.3,5.1,0.6,7.6C281.3,118.5,279.6,120.7,277.3,121.9z"/>
			</g>
			<g>
				<g>
					<g>
						<g>
							<path class="st14" d="M267.2,62.3c0.8,5.1-0.5,10.5-3.6,14.4c-1.9,9.5-9.6,17.5-18.7,19.5c-8.6-3.7-14.4-13.4-13.9-23.1
								s7.4-18.6,16.3-21.3c4.9-1.5,10.8-0.9,14.4,3L267.2,62.3z"/>
						</g>
					</g>
				</g>
				<g>
					<g>
						<g>
							<path class="st15" d="M252.9,51.2c-1.9-0.1-3.9,0.2-5.7,0.7c-8.9,2.6-15.7,11.6-16.3,21.3c-0.5,9.7,5.3,19.4,13.9,23.1
								c0.9-0.2,1.7-0.4,2.6-0.7C244.3,80.2,244,63.5,252.9,51.2z"/>
						</g>
					</g>
				</g>
				<g>
					<g>
						<g>
							<path class="st14" d="M211.3,102.5c-1-1.1-0.1-2.8,0.8-3.9c7-9.4,12.1-19.8,13.8-31.4c7.1,3,14.2,4.3,21.9,5.5
								c-3.2,12.7-5.5,25.7-6.7,38.7c-9.4-2.7-18.8-5.4-28.3-8.1C212.3,103.2,211.7,103,211.3,102.5z"/>
						</g>
					</g>
				</g>
				<path class="st16" d="M273.3,61.2c4.2-1.3,7.5-5.1,8.3-9.5c-2.8,1.5-6.2,2-9.3,1.2c0.9,0,1.8-0.4,2.4-1c-3.7-0.2-7.1-2.1-10-4.3
					c-3-2.2-5.6-4.8-8.8-6.8c-3.1-2-6.8-3.4-10.5-2.8c-0.4,0.1-0.9,0.2-1.3,0.3c-2.1-0.2-4.3-0.2-6.3,0.4
					c-7.1,1.8-12.1,8.6-13.7,15.7c-1.6,7.1-2.4,15.5-0.5,22.5c7.2,3.4,17.7,3.1,25.3,0.9c1.1-0.3,2.1-0.7,3.1-1.1
					c0.5-1.4,0.6-2.9,0.9-4.3c0.3-1.7,0.7-3.4,1.9-4.7c1.2-1.3,3.2-1.8,4.7-0.8c0.9,0.6,1.4,1.8,1.4,2.9c0,0.5,0,1-0.1,1.5
					c1.5-1.3,2.9-2.7,4.1-4.2c5.2,0.4,10.5-2.1,13.3-6.5C276.7,61.2,275,61.4,273.3,61.2z"/>
				<g>
					<g>
						<path class="st15" d="M257.7,72.7c0.3-0.4,0.7-0.6,1-0.9c0.7-0.6,1.1-1.7,0.7-2.6s-1.5-1.5-2.4-1.1c-0.9,0.3-1.3,1.4-1.4,2.3
							c0,1,0.3,2,0.6,2.9c-0.4-0.3-1-0.3-1.4,0s-0.6,0.9-0.4,1.3c0.1,0.3,0.4,0.6,0.6,0.8c0.2,0.3,0.4,0.6,0.3,1
							c-0.1,0.2-0.3,0.3-0.4,0.5c-0.1,0.2-0.1,0.5,0.1,0.5c0.1,0,0.3,0,0.4-0.1c0.9-0.7,1.5-1.7,1.7-2.9
							C257.4,73.9,257.4,73.2,257.7,72.7z"/>
					</g>
				</g>
				<g>
					<g>
						<path class="st0" d="M254.2,48.3c0.9,0.5,0.7,1.8,1.4,2.6c0.7,0.9,2.1,0.7,3.3,0.7c2.1,0,4.1,1.1,5.6,2.6s2.7,3.3,3.8,5.1
							c0.7-1.2,1.5-2.3,2.2-3.5c-7.5-4.4-15.1-8.8-22.6-13.2c0.4,1.9,0.8,3.7,1.1,5.6c0.1,0.3,0.1,0.7,0.4,1
							c0.6,0.7,1.7,0.3,2.4-0.2C252.5,48.4,253.5,47.9,254.2,48.3z"/>
					</g>
				</g>
			</g>
			<g>
				<g>
					<g>
						<path class="st16" d="M167.8,469.6c-1.9-1.1-4.9-1.5-7.1-1.7s-4-0.9-5.8-1.9c-1.9-1.1-3.3-3.3-2.8-5.4
							c-5.6-0.5-9.7-2.2-14.7-4.9c0,4-2.6,7.6-3.7,11.5c-0.3,0.9-0.3,2.1-0.2,3.2c-0.5,2.6-0.4,5.4,0.5,7.9c4.6,2.6,10.1,3.7,15.3,3
							c0.1-0.9,0.3-1.7,0.6-2.5c2.8-0.7,4.9-1.1,7.5-0.6c2.8,0.5,3.8,1,5.6,0.8c1.5-0.2,2.4-0.9,3.8-1.5c1.4-0.6,3.1-2.3,3.5-3.8
							C170.8,471.6,169.7,470.7,167.8,469.6z"/>
					</g>
				</g>
				<g>
					<g>
						<path class="st17" d="M151,464.2c-4.1-1.9-8.3-3.9-12.7-4.9c-0.6,0.9-1.1,1.8-1.4,2.8c-0.3,1-0.2,2.1,0.4,3
							c0.6,0.8,1.6,1.2,2.6,1.5C143.7,467.6,148,466.7,151,464.2z"/>
					</g>
				</g>
				<g>
					<g>
						<g>
							<path class="st18" d="M153.2,221.9c-15,41.6-3.9,62.7-2.2,95.3c1.9,34.8,5.6,64.9-7.1,97.3c-2,5.2-4.8,23.8-7.5,30.4
								c-2.1,5.2-4.2,7.9-1,12.5c3.1,4.6,13,9.6,18,7.3c14.2-36.6,30.9-72.1,44.1-109c13.1-36.6,23.3-82.3,22.7-121.2L153.2,221.9z"
								/>
						</g>
					</g>
				</g>
				<g>
					<g>
						<g>
							<path class="st19" d="M170.9,225.3c-16.8,46.3,0.1,103.4-3.8,150.1c-2.8,31.3-10.4,60.9-21.2,89.2c2.8,0.9,5.6,1.2,7.6,0.3
								c14.2-36.6,30.9-72.1,44.1-109c11.9-33.3,20.7-83.2,21.7-121.4L170.9,225.3z"/>
						</g>
					</g>
				</g>
				<g>
					<g>
						<g>
							<path class="st16" d="M168.8,224.9c-24.3,55.7,16.2,118.1,4,176.4c-1.4,8.3-2.2,17.1-3.9,25.8c9.9-23.6,20.1-47.1,28.7-71.2
								c12.2-34.2,22.5-82.9,23.3-121.1L168.8,224.9z"/>
						</g>
					</g>
				</g>
			</g>
			<g>
				<g>
					<g>
						<path class="st16" d="M229.3,472.7c-0.9-2.2-3.4-3.4-5.7-3.8s-4.8,0-7.1,0c-9.4,0.1-18.6-4.8-27.8-3.3c0,4-0.6,8-0.2,12
							c0.1,0.7,0.2,1.5,0.4,2.2c0.1,2,0.4,4.1,0.8,6.1c0.2,1,0.4,2.1,1,3c0.8,1.1,2.1,1.7,3.5,2c5.1,1.4,10.7,0.4,15-2.5
							c0.5-0.4,1-0.8,1.3-1.3c0.2-0.4,0.3-0.8,0.3-1.3c1.4-0.6,2.8-1.1,4.3-1.6c3.4-1,4.8-1.3,7.9-3
							C226,479.6,230.7,475.9,229.3,472.7z"/>
					</g>
				</g>
				<g>
					<g>
						<path class="st17" d="M211.2,471.1c0.8-0.3,1.6,0.3,1.8,1.1c0.2,0.8-0.2,1.6-0.8,2.2c-0.6,0.5-1.4,0.8-2.1,1.1
							c-3.4,1.1-7,1.2-10.5,1.2c-2.1,0-4.3-0.1-6.3-0.9s-3.7-2.3-4.3-4.4c-0.5-2.1,0.6-4.5,2.6-5.1L211.2,471.1z"/>
					</g>
				</g>
				<g>
					<g>
						<g>
							<path class="st18" d="M161.3,223.4c-8.5,50.4,3.6,64.9,17,108.5c4.3,14.1,11.2,49.9,9.3,64.4s0,40.2,0.4,73.1
								c8.1,5.8,14.3,5.3,23.2,3.1c5.4-39,11.9-78.9,13.1-116c1.1-34.7-1.5-81.4-2.2-121.6L161.3,223.4z"/>
						</g>
					</g>
				</g>
				<g>
					<g>
						<g>
							<path class="st19" d="M188.6,228.6l-27.4-5.2c-8.5,50.4,3.6,64.9,17,108.5c4.3,14.1,11.2,49.9,9.3,64.4s0,40.2,0.4,73.1
								c3.8,2.7,7.2,4.1,10.6,4.5c3.3-40.9,5.9-81.7,2.7-123.2C197.9,313.8,182.2,267.4,188.6,228.6z"/>
						</g>
					</g>
				</g>
			</g>
			<g>
				<g>
					<g>
						<g>
							<path class="st20" d="M200.7,97.9c4.3-2.6,7.7-6.6,9.7-11.2c15.3,0.9,29.9,10.3,37.1,23.8c-6.3-2.4-12.6-4.8-19-7.2
								c-8-3-16.2-6.1-24.7-5.9L200.7,97.9z"/>
						</g>
					</g>
					<g>
						<g>
							<g>
								<g>
									<path class="st20" d="M225.5,239.9c0-1.4,0.1-2.7,0.1-4.1c0.5-16.9,3.1-23.7,3.5-29c0.9-12.8,5.1-17,11.4-28.2
										c4.8-8.5,12.2-22.8,17.2-31.2c5-8.4,7.6-19.4,2.6-27.7c-3-5-8.2-8.2-13.4-10.9c-5.1-2.7-10.4-5-15.8-7.1
										c-10.4-4.1-27-10.8-38.1-3c-5.5,3.8-11.9,11-15.4,16.7c-18.7,31.2-18,55.7-27.7,109.6c0,0.3-0.2,0.6-0.3,1.1
										c-0.8,2.6,0.7,5.5,3.4,6.2C176.9,238.6,201.2,240.9,225.5,239.9z"/>
								</g>
							</g>
						</g>
					</g>
					<g>
						<g>
							<path class="st16" d="M205.2,98.9c10.6,0.8,21.1,2.9,31.1,6.4c-8.8-5.9-19.3-9.2-29.9-9.5c-0.8,0-1.7,0-2.4,0.4
								s-1.1,1.4-0.6,2.1C203.8,98.8,204.5,98.9,205.2,98.9z"/>
						</g>
					</g>
					<g>
						<g>
							<g>
								<g>
									<path class="st12" d="M225.5,239.9c0-1.4,0.1-2.7,0.1-4.1c0.5-16.9,3.1-23.7,3.5-29c0.9-12.8,5.1-17,11.4-28.2
										c4.8-8.5,12.2-22.8,17.2-31.2c4.7-7.8,7.2-17.8,3.6-25.9c-39.8,21.2-50.2,75.3-49.6,118.6
										C216.3,240.2,220.9,240.1,225.5,239.9z"/>
								</g>
							</g>
						</g>
					</g>
					<path class="st16" d="M247.4,159.1c-5.9-1.3-9.8-7.4-10.1-13.4c-0.4-6,2.1-11.8,5.3-16.9c-2,5.1-2.9,10.6-2.2,16
						C241.1,150.1,243.5,155.3,247.4,159.1z"/>
				</g>
				<g>
					<path class="st16" d="M217.1,239.6l-1-0.1c2.3-28.1,10.7-57.3,25-86.9l0.9,0.4C227.8,182.5,219.4,211.6,217.1,239.6z"/>
				</g>
			</g>
			<g>
				<g>
					<g>
						<g>
							<path class="st14" d="M367,123.9c-5.9,1.8-9.9,2.2-16,2.7c-2,0.2-4.2,0.3-5.8,1.6c-2.5,2-3.5,6.3-5.5,8.9
								c-0.3,0.3-0.5,0.6-0.7,0.9c-8.5,4.9-17.2,11.8-26.3,15.4c-4.4,1.7-9.4,3.8-13.3,6.7c-2.1-2-4.2-3.9-6.3-5.9
								c-2.7-2.6-5-5-6.9-7.2c-4.3,9.3-10.7,17.4-18.4,23.9c1,0.8,2.1,1.7,3.4,2.8c5.6,4.8,10.9,9.9,16.9,14.1
								c3.4,2.3,7.3,4.5,11.4,4h0.1c0.8,0.2,1.6,0.2,2.3,0.2c4-0.3,7.3-3.2,10.1-6c5.2-5.1,10.1-10.4,15-15.8
								c7.1-7.7,14.2-15.4,21.2-23.1c4.1,0.4,6.7-2.8,9-5.7c-0.9,1.4-1.4,2.8-2.4,4.3c0.5,1.9,0.6,1.9,2.3,2
								c0.9-2.9,4.4-4.2,6.6-6.4c0.6-0.6,1.4-7.3,0.9-7.7c-1.8-1.7-4.7-2.6-6.9-4.1C361.8,128.3,370.6,127,367,123.9z"/>
							<path class="st13" d="M295.3,180c-7.8-3.4-15.3-8.2-22.5-13.9c-1.6,1.6-3.3,3.2-5.1,4.7c1,0.8,2.1,1.7,3.4,2.8
								c5.6,4.8,10.9,9.9,16.9,14.1c3.4,2.3,7.3,4.5,11.4,4h0.1c0.8,0.2,1.6,0.2,2.3,0.2c4-0.3,7.3-3.2,10.1-6
								c5.2-5.1,10.1-10.4,15-15.8c7.1-7.7,14.1-15.4,21.2-23.1C328.7,157.8,318.5,189.9,295.3,180z"/>
							<path class="st20" d="M286.1,146.9c-8.4-9.6-11.8-17.1-23.3-28.1c-1.1-1.1-2.3-2.2-3.9-2.4c-1.9-0.3-3.7,0.7-5.3,1.8
								c-7.5,5.3-12.7,13.7-14,22.7c-0.7,4.7-0.4,9.9,2.4,13.8c2.2,3,5.6,4.9,8.8,6.8c8.8,5.2,10.8,4.7,16.8,9.4
								C275.5,164.3,281.8,156.2,286.1,146.9z"/>
						</g>
					</g>
				</g>
				<g>
					<g>
						<g>
							<path class="st12" d="M273.7,165.1c-11.2-7.6-22.8-13-33.8-25.7c-0.1,0.5-0.2,0.9-0.3,1.4c-0.7,4.7-0.4,9.9,2.4,13.8
								c2.2,3,5.6,4.9,8.8,6.8c8.8,5.2,10.8,4.7,16.8,9.4C269.8,169,271.8,167.1,273.7,165.1z"/>
						</g>
					</g>
				</g>
				<g>
					<path class="st16" d="M264.6,168.7l-0.7-0.7c7.4-7.3,13.6-15.6,18.5-24.7l0.9,0.5C278.3,152.9,272,161.3,264.6,168.7z"/>
				</g>
			</g>
		</g>
	</g>
</g>
</svg>
