<?xml version="1.0" encoding="utf-8"?>
<!-- Generator: Adobe Illustrator 25.2.0, SVG Export Plug-In . SVG Version: 6.00 Build 0)  -->
<svg version="1.1" id="Layer_1" xmlns="http://www.w3.org/2000/svg" xmlns:xlink="http://www.w3.org/1999/xlink" x="0px" y="0px"
	 viewBox="0 0 55 50" style="enable-background:new 0 0 55 50;" xml:space="preserve">
<style type="text/css">
	.st0{fill:url(#SVGID_1_);}
	.st1{fill:url(#SVGID_2_);}
</style>
<g>
	<linearGradient id="SVGID_1_" gradientUnits="userSpaceOnUse" x1="40.8" y1="27.1" x2="43.8" y2="27.1">
		<stop  offset="0" style="stop-color:#AA0078"/>
		<stop  offset="0.1484" style="stop-color:#A60078"/>
		<stop  offset="0.3022" style="stop-color:#990078"/>
		<stop  offset="0.4585" style="stop-color:#850078"/>
		<stop  offset="0.6166" style="stop-color:#680078"/>
		<stop  offset="0.7761" style="stop-color:#420078"/>
		<stop  offset="0.9345" style="stop-color:#150078"/>
		<stop  offset="1" style="stop-color:#000078"/>
	</linearGradient>
	<path class="st0" d="M42.8,26.1h-1c-0.6,0-1,0.4-1,1s0.4,1,1,1h1c0.6,0,1-0.4,1-1S43.3,26.1,42.8,26.1z"/>
	<linearGradient id="SVGID_2_" gradientUnits="userSpaceOnUse" x1="1" y1="25.05" x2="54.005" y2="25.05">
		<stop  offset="0" style="stop-color:#AA0078"/>
		<stop  offset="0.1484" style="stop-color:#A60078"/>
		<stop  offset="0.3022" style="stop-color:#990078"/>
		<stop  offset="0.4585" style="stop-color:#850078"/>
		<stop  offset="0.6166" style="stop-color:#680078"/>
		<stop  offset="0.7761" style="stop-color:#420078"/>
		<stop  offset="0.9345" style="stop-color:#150078"/>
		<stop  offset="1" style="stop-color:#000078"/>
	</linearGradient>
	<path class="st1" d="M54,31.2L54,31.2v-6.7c0-0.1,0-0.3-0.1-0.4c0-0.2,0.1-0.5,0-0.7L51.1,17c-0.3-0.6-0.9-1-1.5-1h-9.8v-4.1
		c0-1.7-1.3-3.1-3.1-3.1H10.2c-1.7,0-3.1,1.3-3.1,3.1V17H2c-0.6,0-1,0.4-1,1s0.4,1,1,1h5.1v1H3c-0.6,0-1,0.4-1,1s0.4,1,1,1h4.1v1h-1
		c-0.6,0-1,0.4-1,1s0.4,1,1,1h1v1v2v5.1c0,1.7,1.3,3.1,3.1,3.1h1.1c0,0.2-0.1,0.3-0.1,0.5c0,2.6,2,4.6,4.6,4.6s4.6-2,4.6-4.6
		c0-0.2,0-0.3-0.1-0.5h19.4h0.1h1.1c0,0.2-0.1,0.3-0.1,0.5c0,2.6,2,4.6,4.6,4.6s4.6-2,4.6-4.6c0-0.2,0-0.3-0.1-0.5h1.2
		c1.6-0.1,3-1.4,2.9-3.1L54,31.2L54,31.2z M15.7,39.2c-1.4,0-2.6-1.1-2.6-2.6c0-1.4,1.1-2.6,2.6-2.6s2.6,1.1,2.6,2.6
		C18.3,38.2,17.1,39.2,15.7,39.2z M37.7,30.2h-8.2c-0.6,0-1,0.4-1,1s0.4,1,1,1h8.2v2H19.5c-0.8-1.2-2.2-2-3.8-2s-3,0.8-3.8,2h-1.8
		c-0.6,0-1-0.4-1-1v-1h2c0.6,0,1-0.4,1-1s-0.4-1-1-1h-2v-2h28.6V30.2z M37.7,17.2v6.4v2.5H9.1v-1h13.3c0.6,0,1-0.4,1-1s-0.4-1-1-1
		H9.1v-1h9.2c0.6,0,1-0.4,1-1s-0.4-1-1-1H9.1v-1h8.2c0.6,0,1-0.4,1-1s-0.4-1-1-1H9.1V12c0-0.6,0.4-1,1-1h26.5c0.6,0,1,0.4,1,1v5.2
		H37.7z M39.7,17.9h9.6l2.2,5.1H39.7V17.9z M45.3,39.2c-1.4,0-2.6-1.1-2.6-2.6c0-1.4,1.1-2.6,2.6-2.6c1.4,0,2.6,1.1,2.6,2.6
		C47.9,38.2,46.7,39.2,45.3,39.2z M51,34.2h-1.9c-0.8-1.2-2.2-2-3.8-2s-3,0.8-3.8,2h-1.8v-6.1v-2v-1H52v5.1h-3.1c-0.6,0-1,0.4-1,1
		s0.4,1,1,1H52v1C52,33.7,51.5,34.1,51,34.2z"/>
</g>
</svg>
