<?xml version="1.0" encoding="utf-8"?>
<!-- Generator: Adobe Illustrator 25.2.0, SVG Export Plug-In . SVG Version: 6.00 Build 0)  -->
<svg version="1.1" id="Layer_1" xmlns="http://www.w3.org/2000/svg" xmlns:xlink="http://www.w3.org/1999/xlink" x="0px" y="0px"
	 viewBox="0 0 570 500" style="enable-background:new 0 0 570 500;" xml:space="preserve">
<style type="text/css">
	.st0{fill:#C7D3DD;}
	.st1{fill:#FBECEC;}
	.st2{fill:#01414D;}
	.st3{fill:#48BAEB;}
	.st4{fill:#DC8455;}
	.st5{fill:#EAE6E3;}
	.st6{fill:#FFD355;}
	.st7{fill:#A0969D;}
	.st8{fill:#B1A7AC;}
	.st9{fill:#DBA983;}
	.st10{fill:#EDC6A4;}
	.st11{fill:#012A44;}
	.st12{fill:#67859F;}
	.st13{fill:#126888;}
	.st14{fill:#0E576C;}
	.st15{fill:#C16339;}
</style>
<g>
	<g>
		<ellipse class="st0" cx="285" cy="431.5" rx="279.5" ry="51.1"/>
		<path class="st1" d="M502.8,397.9c7.3-37.6,24.7-73.2,37.9-109.5c15.5-42.8,19.8-86.5,0.1-127.7c-11.8-24.7-27.7-48.9-48.2-67.2
			c-33.2-29.7-68.1-60.3-111.4-71.6C306.6,2.5,228.9,47,178,104.2C116.8,173,80.2,262.9,76,354.4c-0.6,14.1,0.4,29.4,4,43.5H502.8z"
			/>
	</g>
	<g>
		<g>
			<g>
				<g>
					<g>
						
							<rect x="125.9" y="319.3" transform="matrix(0.8895 -0.457 0.457 0.8895 -127.1863 116.5468)" class="st2" width="102.9" height="3.8"/>
					</g>
					<g>
						
							<rect x="345.2" y="269.9" transform="matrix(0.4575 -0.8892 0.8892 0.4575 -97.4153 482.9319)" class="st2" width="3.8" height="102.9"/>
					</g>
					<g>
						<g>
							<rect x="126.8" y="299.8" class="st2" width="7.9" height="157"/>
							<rect x="391" y="299.8" class="st2" width="7.9" height="157"/>
						</g>
						<g>
							<rect x="109.5" y="299.8" class="st2" width="5.6" height="110.2"/>
							<rect x="322.6" y="299.8" class="st2" width="5.6" height="110.2"/>
						</g>
					</g>
				</g>
				<g>
					<polygon class="st3" points="434.2,292.1 309.9,212.2 81.3,212.2 81.3,221.5 81.3,292.1 81.3,301.4 434.2,301.4 					"/>
					<polygon class="st2" points="434.2,292.1 81.3,292.1 81.3,212.2 309.9,212.2 					"/>
				</g>
			</g>
			<g>
				<g>
					<g>
						<path class="st0" d="M286.4,112.6H113.2c-5.3,0-9.5,4.3-9.5,9.5v74.4c0,5.3,4.3,9.5,9.5,9.5h198.4c5.3,0,9.5-4.3,9.5-9.5
							v-67.7L286.4,112.6z"/>
						<path class="st4" d="M311.6,222.4H113.2c-5.3,0-9.5-4.3-9.5-9.5v-74.4c0-5.3,4.3-9.5,9.5-9.5h198.4c5.3,0,9.5,4.3,9.5,9.5
							v74.4C321.1,218.1,316.9,222.4,311.6,222.4z"/>
						<path class="st2" d="M288.9,167.5H138.4c-3.7,0-6.6-3-6.6-6.6v-27.2h163.8v27.2C295.6,164.6,292.6,167.5,288.9,167.5z"/>
						<rect x="130" y="189.2" class="st2" width="168.7" height="20.6"/>
						<path class="st5" d="M282.3,212.3c0,1.9-1.6,3.5-3.5,3.5l0,0c-1.9,0-3.5-1.6-3.5-3.5v-16.9c0-1.9,1.6-3.5,3.5-3.5l0,0
							c1.9,0,3.5,1.6,3.5,3.5V212.3z"/>
						<path class="st2" d="M121.4,209.8h-1.2c-2.9,0-5.2-2.3-5.2-5.2v-48.3c0-2.9,2.3-5.2,5.2-5.2h1.2c2.9,0,5.2,2.3,5.2,5.2v48.3
							C126.6,207.5,124.3,209.8,121.4,209.8z"/>
						<path class="st6" d="M123.2,156.4c0,0.8-0.6,1.4-1.4,1.4s-1.4-0.6-1.4-1.4c0-0.8,0.6-1.4,1.4-1.4
							C122.5,155,123.2,155.6,123.2,156.4z"/>
						<path class="st6" d="M123.2,169.1c0,0.8-0.6,1.4-1.4,1.4s-1.4-0.6-1.4-1.4c0-0.8,0.6-1.4,1.4-1.4
							C122.5,167.7,123.2,168.3,123.2,169.1z"/>
						<path class="st3" d="M123.2,181.8c0,0.8-0.6,1.4-1.4,1.4s-1.4-0.6-1.4-1.4c0-0.8,0.6-1.4,1.4-1.4
							C122.5,180.4,123.2,181.1,123.2,181.8z"/>
						<rect x="130.8" y="184" class="st2" width="167.3" height="2.1"/>
						<path class="st5" d="M148.3,212.3c0,1.9-1.6,3.5-3.5,3.5l0,0c-1.9,0-3.5-1.6-3.5-3.5v-16.9c0-1.9,1.6-3.5,3.5-3.5l0,0
							c1.9,0,3.5,1.6,3.5,3.5V212.3z"/>
					</g>
					<g>
						<rect x="140.1" y="124.3" class="st5" width="147.1" height="33.8"/>
						<rect x="140.1" y="119.8" class="st7" width="147.1" height="4.5"/>
						<g>
							<g>
								<path class="st5" d="M153.4,124.1v23.5V124.1z"/>
								<path class="st7" d="M153.4,148.5c-0.5,0-1-0.4-1-1V124c0-0.5,0.4-1,1-1c0.5,0,1,0.4,1,1v23.5
									C154.3,148.1,153.9,148.5,153.4,148.5z"/>
							</g>
							<g>
								<path class="st5" d="M173.6,124.1v23.5V124.1z"/>
								<path class="st7" d="M173.6,148.5c-0.5,0-1-0.4-1-1V124c0-0.5,0.4-1,1-1c0.5,0,1,0.4,1,1v23.5
									C174.5,148.1,174.1,148.5,173.6,148.5z"/>
							</g>
							<g>
								<path class="st5" d="M193.8,124.1v23.5V124.1z"/>
								<path class="st7" d="M193.8,148.5c-0.5,0-1-0.4-1-1V124c0-0.5,0.4-1,1-1s1,0.4,1,1v23.5
									C194.8,148.1,194.3,148.5,193.8,148.5z"/>
							</g>
							<g>
								<path class="st5" d="M214,124.1v23.5V124.1z"/>
								<path class="st7" d="M214,148.5c-0.5,0-1-0.4-1-1V124c0-0.5,0.4-1,1-1c0.5,0,1,0.4,1,1v23.5
									C215,148.1,214.5,148.5,214,148.5z"/>
							</g>
							<g>
								<path class="st5" d="M234.2,124.1v23.5V124.1z"/>
								<path class="st7" d="M234.2,148.5c-0.5,0-1-0.4-1-1V124c0-0.5,0.4-1,1-1c0.5,0,1,0.4,1,1v23.5
									C235.2,148.1,234.8,148.5,234.2,148.5z"/>
							</g>
							<g>
								<path class="st5" d="M254.4,124.1v23.5V124.1z"/>
								<path class="st7" d="M254.4,148.5c-0.5,0-1-0.4-1-1V124c0-0.5,0.4-1,1-1c0.5,0,1,0.4,1,1v23.5
									C255.4,148.1,255,148.5,254.4,148.5z"/>
							</g>
							<g>
								<path class="st5" d="M274.6,124.1v23.5V124.1z"/>
								<path class="st7" d="M274.6,148.5c-0.5,0-1-0.4-1-1V124c0-0.5,0.4-1,1-1c0.5,0,1,0.4,1,1v23.5
									C275.6,148.1,275.2,148.5,274.6,148.5z"/>
							</g>
						</g>
					</g>
				</g>
				<g>
					<g>
						<polygon class="st0" points="337,236.4 265.7,195.5 148.7,195.5 148.7,212.2 148.7,236.4 148.7,253.1 337,253.1 						"/>
						<polygon class="st7" points="337,236.4 148.7,236.4 148.7,195.5 272.3,194.5 						"/>
					</g>
					<g>
						<path class="st5" d="M200.8,238c-0.6,0-1.1-0.3-1.3-0.9L183,195.6c-0.3-0.7,0.1-1.6,0.8-1.9c0.7-0.3,1.6,0.1,1.9,0.8
							l16.4,41.5c0.3,0.7-0.1,1.6-0.8,1.9C201.1,238,200.9,238,200.8,238z"/>
					</g>
					<g>
						<path class="st5" d="M279.9,238c-0.4,0-0.7-0.1-1-0.4l-42.3-41.5c-0.6-0.6-0.6-1.5,0-2c0.6-0.6,1.5-0.6,2,0l42.3,41.5
							c0.6,0.6,0.6,1.5,0,2C280.6,237.8,280.3,238,279.9,238z"/>
					</g>
				</g>
				<g>
					<path class="st2" d="M348.1,160.6h-51.6c-1.2,0-2.1-1-2.2-2.1l-0.8-61.9c0-1.2,1-2.2,2.2-2.2h45.1c1.1,0,2,0.8,2.1,1.9
						l7.3,61.9C350.4,159.4,349.4,160.6,348.1,160.6z"/>
					<path class="st8" d="M347.4,158.5h-43.7c-0.6,0-1.1-0.5-1.2-1.1l-7-59.6c-0.1-0.7,0.5-1.3,1.2-1.3h43.7c0.6,0,1.1,0.5,1.2,1.1
						l7,59.6C348.7,157.9,348.1,158.5,347.4,158.5z"/>
					<polygon class="st3" points="346,153.8 305.7,153.8 299.3,99.7 339.6,99.7 					"/>
					<path class="st2" d="M324,122.5c-4.1,1.6-8.7,3.7-10.1,7.8c-0.8,2.3-0.5,4.7-0.4,7.1c0.2,5.6-1,11.1-2.2,16.6
						c9.9,0,24.8,0.3,34.7-0.3l-4.1-33.3C337.2,120.5,326,121.6,324,122.5z"/>
				</g>
			</g>
		</g>
		<g>
			<g>
				<path class="st9" d="M391.7,179.1c-0.7,2.8-3,4.8-5.6,6.1c-2.5,1.3-5.4,1.9-8,2.9s-4.3,1.8-5.6,4.3c-0.8,1.5-3,6.3-4.5,6
					c-0.6,0-0.7-0.3-0.3-1.6c-1,1.1-1.3,1.5-2.8,1.5c-0.4-0.5-0.1-1.1,0.5-2.5c-0.4,0.9-1.7,1.4-2.6,1.1c0.1-0.8,0.7-2.2,0.7-3
					c-1.3,1.2-2,0.8-2.5,0.5c-0.4-0.6,2-7,2.9-10.5c0.3-1,0.6-2.1,1.1-3c0.6-1,1.6-1.7,2.5-2.5c1.3-1.2,2.5-2.5,3.9-3.5
					c5.2-3.6,12.9-2.4,17.5-6.7c1.2,2.1,2.1,4.3,2.7,6.6L391.7,179.1z"/>
				<path class="st10" d="M456,82.5c-1.9-3.4-5.3-6-9.1-6.8c-1.1-0.2-2.2-0.3-3.3,0c-1.2,0.3-2.2,1.1-3.1,1.9
					c-1.5,1.4-2.7,3.1-3.6,4.9c-6.6,12.8-10.7,36.1-18.2,48.4c-9.7,16-27.5,37.4-39.2,40c-3.9,1.3-7.3,2.4-11.1,4
					c-0.3,0.1-2.1,2-2.3,2.3c-0.3,0.4-0.3,0.9-0.3,1.3c-0.1,2.8,0.2,5.8-1.2,8.3c-0.2,0.3-0.3,0.6-0.3,0.9c0,0.8,0.9,1.3,1.7,1.1
					c0.7-0.2,1.3-0.8,1.7-1.4c1.2-1.7,2.2-3.6,2.7-5.7c1.8-0.4,3.6,0.4,5.4,0.6c2,0.2,4.1-0.4,5.8-1.5c0.1,0,0.1,0.1,0.2,0.1
					c3.8,1.6,5.5,3.5,8.9,1c25.6-18.6,57.2-46.5,66.1-76.2C458.8,98.2,460.1,89.9,456,82.5z"/>
			</g>
			<g>
				<g>
					<g>
						<g>
							<path class="st9" d="M404.1,57.1c4.6-1.7,8.8-4.1,12.6-7.1c6.5,9.5,14.6,17.8,24,24.5c-10.3,3.7-20,9-28.7,15.7
								C409.4,79.1,406.7,68.1,404.1,57.1z"/>
						</g>
						<g>
							<path class="st11" d="M428,65c-7,2.4-13.6,6.1-19.3,10.7c1.7-2.5,2.9-5.2,4.6-7.7s3.9-4.7,6.8-5.6S426.5,62.4,428,65z"/>
						</g>
						<path class="st11" d="M384.8,49.6c0.3-0.2,0.6-0.4,0.7-0.7c0.2-0.3,0.1-0.7-0.1-1c-1,0.9-2.4,1.3-3.7,1.1
							c0.3,0.5,0.8,0.8,1.4,0.9C383.8,50.1,384.3,49.9,384.8,49.6z"/>
						<g>
							<path class="st10" d="M386.4,30.3c-2.8,2.3-7.5,3.6-7.4,7.2c0.4,10.7,4.2,9.4,4.6,11.9c0.5,2.8,0.1,4.9,1.3,7.4
								c1.9,3.7,5.7,7.5,12.1,15.2c1.2,1.5,5.2,0.1,6.9-0.8c2.8-1.5,2.9-2.8,3.4-4c2.7-6.7,1.7-10.3,4.5-15.1
								c2.9-4.8,11.5-4.7,10.7-10.2c-1.1-7.6-7.1-14.1-14.5-16.3C400.7,23.4,392.3,25.4,386.4,30.3z"/>
						</g>
						<g>
							<path class="st9" d="M422.6,41.8c-0.5-3.7-2.2-7.2-4.7-10c-9.5,10.4-11.6,22.7-15.7,37c-0.5,1.6-1.6,2.8-3.1,3.8
								c1.7,0,3.8-0.8,4.9-1.4c2.8-1.5,2.9-2.8,3.4-4c2.7-6.7,1.7-10.3,4.5-15.1C414.7,47.3,423.3,47.3,422.6,41.8z"/>
						</g>
						<g>
							<path class="st9" d="M422.6,41.8c-1.1-7.6-7.1-14.1-14.5-16.3s-15.7-0.1-21.7,4.7c-2.8,2.3-7.5,3.6-7.4,7.2
								c0,0.6,0.1,1.2,0.1,1.8c4,0.7,8.1-1.2,10.8,1.8c7.1,7.8,18.6,15.4,17.1,26.6c0.1-0.2,0.2-0.4,0.3-0.5
								c2.7-6.7,2.2-10,5.1-14.8C415.2,47.6,423.3,47.3,422.6,41.8z"/>
						</g>
						<path class="st11" d="M421.2,34.5c-1.1-2.8-2.9-5.3-4.7-7.7c-0.4-1-0.7-1.9-1.2-2.9c-0.8-1.6-1.7-3.1-3-4.3s-3.1-1.9-4.8-1.6
							c-1,0.1-1.9,0.6-2.9,0.6s-1.9-0.4-2.9-0.7c-3.2-1-6.7-0.7-10,0.2c-2.5,0.7-4.8,1.7-7.1,2.9c-1.1,0.2-2.2,0.5-3.2,1.1
							c-1.8,1-3.3,2.4-4.9,3.6s-3.4,2.3-5.4,2.6c-0.5,0.1-1.1,0.1-1.6,0.4c-0.8,0.6-0.8,1.8-0.2,2.7c0.6,0.8,1.5,1.3,2.4,1.7
							c-0.1,0.3-0.6,0.2-0.9,0.1c-0.3-0.1-0.8-0.1-0.8,0.3c0,0.1,0.1,0.2,0.1,0.3c1,1.6,2.7,2.7,4.6,3.2c0.5,0.5,1.1,0.8,1.7,1
							c1.3,0.5,2.6,0.5,4,0.5c5.5-0.1,6.8-0.1,12.2-1.2c-0.6,3.5,1.4,7.5,5.4,9.6c0.3-1,0.3-2.3,0.2-2.9c-0.2-0.8-0.5-1.6-0.4-2.5
							c0.1-1.6,1.8-2.7,3.4-2.5s2.8,1.5,3.3,3.1c0.6,1.8,0.1,3.8,0.7,5.6c0.3,1,0.9,2,0.7,3c-0.1,0.5-0.5,1-0.9,1.3
							c1.2,1,2.6,1.6,4.7,1.3c1.7-0.3,2,0.7,3.7,1.6c0.9,0.5,2.2,1.3,3.2,1.6c0.8,0.2,1.7-0.1,2.3-0.7c0.6-0.6,1.9-1,2.2-1.7
							c0.6-1.6,2.2-4.2,2.6-5.9C424.8,43.4,422.9,38.9,421.2,34.5z"/>
						<g>
							<path class="st12" d="M374,30.7c-0.9,0.6-2.4,0.1-2.8-0.9c-0.2,0.7,0.2,1.6,1,1.8C372.8,31.8,373.7,31.4,374,30.7z"/>
							<path class="st12" d="M377.4,33.5c3-0.8,5.7-3,7.1-5.8c0.4,1.7-0.6,3.6-2,4.6C381.1,33.3,379.2,33.6,377.4,33.5z"/>
							<path class="st12" d="M394,30c-0.2-0.1-0.4-0.3-0.6-0.4c-0.4-0.2-0.8-0.1-1.2,0c-2.4,0.5-4.6,1.3-6.8,2.4
								c1.5-1.9,3.2-3.6,5.1-5.1c-0.3,0.6,0,1.4,0.6,1.7c0.6,0.3,1.4,0,1.7-0.6c1.1,0.8,2.6,0.6,3.8,0c1.2-0.6,2.1-1.6,3-2.6
								c-0.1,1.8-1.3,3.6-2.9,4.5C395.7,30.2,394.7,30.5,394,30z"/>
							<path class="st12" d="M412,22.6c0.8,1.4,1.6,2.8,2,4.4c-0.4-0.8-1.5-1.2-2.4-0.9c-0.9,0.3-1.4,1.2-1.5,2.2
								c0,0.6,0.1,1.2-0.1,1.7c-0.2,0.6-0.8,1-1.3,0.7c-0.3-0.2-0.4-0.7-0.4-1.1c0-1,0-2.1,0.1-3.1C409.5,26.4,411.7,23.6,412,22.6z
								"/>
						</g>
						<g>
							<path class="st11" d="M400.2,45.5c-0.1,0.4-0.2,0.7-0.2,1.1c0,0.4,0,0.8,0.3,1c0.6,0.4,1.6,0,2,0.7c0.3,0.4-0.1,1-0.1,1.5
								c0,0.8,1,1.4,1.7,1.1c0.2-1,0.5-2,0.3-3s-0.9-2-1.9-2.1c-0.5-0.1-1.1,0-1.3-0.5c-0.1-0.4,0.3-0.7,0.6-1
								c0.8-0.6,1.5-1.6,1.4-2.6s-1.1-2-2.1-1.6c-0.9,0.3-1.2,1.5-1.1,2.5C400,43.6,400.4,44.6,400.2,45.5z"/>
						</g>
					</g>
				</g>
				<g>
					<path class="st11" d="M496.5,443.3c0.3,1.3,0.3,0.8,0.5,2.1c4.6,0.1,9.2-0.5,13.7-1.7c0-7.3-2-13.8-2.2-23.2
						c-5.9,1.4-12,0.5-18.1,0c0.3,3.6-2.9,9.7-5.9,11.7c-3,1.9-6.6,2.8-9.9,4.2c-1.9,0.8-3.9,1.8-5.2,3.5c-1.3,1.7-1.7,4.1-0.5,5.9
						c4.9,0.3,9.8,0.4,14.7,0.4c1.1,0,2.3,0,3.4-0.3C490.4,445,493.1,443,496.5,443.3z"/>
					<g>
						<path class="st13" d="M454.4,200.7c-5.9,82.8,21.8,149.2,31.4,227.2c4.5,0.1,25.3,4.8,23.4-5.6c6.6-85.4-23-126.7,0.9-208.5
							c1.7-5.7-0.8-24.5-6.2-33.4C485.9,183.3,472.3,197.7,454.4,200.7z"/>
					</g>
					<g>
						<path class="st14" d="M484.6,251c3.2-19.5-4.5-39-9.3-58.4c-6.7,3.6-13.4,6.9-21,8.1c-5.9,82.8,21.8,149.2,31.4,227.2
							c2.4,0.1,9.3,1.4,15,1.1C488.7,370.5,479.7,311.5,484.6,251z"/>
					</g>
					<g>
						<path class="st11" d="M488.4,243.3c3.1-18.3-8.5-34.2-15.2-49.6c-6,3.1-12.1,5.8-18.8,7c-5.9,82.8,21.8,149.2,31.4,227.2
							c0.9,0,2.4,0.2,4.3,0.5C478.3,367.8,470.3,306.7,488.4,243.3z"/>
					</g>
				</g>
				<g>
					<path class="st11" d="M455.7,450.9c0.3,1.3,0.3,0.7,0.6,2c4.8,0.1,9.7-0.5,14.4-1.7c0.1-7.3-1-14.6-3-21.7
						c-6.2,1.4-12.6,1.8-19,1.4c0.3,3.6-2.4,6.9-5.6,8.8s-7.3,1.8-10.8,3.1c-2,0.8-4.8,1.1-6.1,2.7c-1.3,1.7-2.9,5.4-1.7,7.2
						c5.2,0.3,12.6,0.9,17.7,1c1.2,0,2.4,0,3.6-0.3C449.2,452.5,452,450.6,455.7,450.9z"/>
					<g>
						<path class="st13" d="M437.6,200.7c-4.3,78.5-1,159.4,8.6,237.4c4.5,0.1,21.6,8,23.6-3.4c5.9-44.4,0.6-91,5-134.1
							c3.7-36.1,26.3-81.2,16.6-108.8C473.5,194.7,455.6,197.7,437.6,200.7z"/>
					</g>
					<g>
						<path class="st14" d="M471.9,195c-11.4,1.9-22.8,3.8-34.2,5.7c-4.3,78.5-1,159.4,8.6,237.4c2.1,0.1,7.1,1.8,11.9,2.5
							C456.3,358.6,460.9,277.8,471.9,195z"/>
					</g>
					<g>
						<path class="st11" d="M449.1,198.8c-3.8,0.6-7.6,1.3-11.4,1.9c-4.3,78.5-1,159.4,8.6,237.4c0.6,0,1.4,0.2,2.3,0.4
							C442.4,350.2,428.6,276.9,449.1,198.8z"/>
					</g>
				</g>
				<g>
					<g>
						<path class="st4" d="M443,204.4c12.8-1.6,25.5-3.1,38.2-5.2c7.5-3.7,14.9-7.5,22.5-10.9c2.7-1.2,3.9-4.3,2.8-7
							c-9.3-23.1-16.9-49.5-27.4-70.1c-4.2-8.1-8.4-16.4-14.1-23.5c-5.7-7.2-13.1-13.3-21.9-15.9c-8.1-2.4-17-1.8-24.6,1.8
							c-7.6,3.6-13.8,10.1-17,17.9c-4.8,11.7-2.7,25.1,2,36.8c4.8,11.7,10.6,23.1,18.3,33c8,10.3,10.5,22.7,10.9,34.4
							C432.9,201.1,437.7,205.1,443,204.4z"/>
					</g>
					<g>
						<path class="st15" d="M421.9,161.4c8.1,10.4,10.6,23.1,10.9,35c0.1,5,4.4,8.8,9.4,8.2c5.7-0.7,11.5-1.4,17.2-2.2
							c-0.5-4.8,0-9.9,2.1-15c0.9-2.8,1.9-5.7,0-8.5c-11.4-12.3-17.1-23.7-24.6-37c-7.2-13.3-27.6-22.7-38-36.2
							c-0.1,7.7,1.8,15.5,4.8,22.6C408.4,140,414.2,151.4,421.9,161.4z"/>
					</g>
					<g>
						<path class="st11" d="M453.3,203.2c-1.6-2.6-2.1-6.1-1.5-10.5c0.1-1.2,0.3-2.5,0.5-3.7c0.4-2.2,0.7-4.4,0.7-6.7
							c0-6.3-2.9-12.9-8.5-19.6c-2.4-2.8-5-5.4-7.6-8s-5.3-5.3-7.7-8.1c-4.2-5-6-9.2-5.7-13.3l1,0.1c-0.3,3.9,1.5,7.9,5.5,12.7
							c2.4,2.8,5,5.5,7.6,8c2.6,2.6,5.2,5.2,7.6,8c5.8,6.9,8.7,13.7,8.7,20.2c0,2.3-0.4,4.6-0.7,6.8c-0.2,1.2-0.4,2.4-0.5,3.6
							c-0.5,4.2,0,7.4,1.4,9.9L453.3,203.2z"/>
					</g>
					<g>
						<path class="st11" d="M442.7,111.8c-1,10.9-9.3,20.1-19,25.1c-2.5,1.3-5.2,2.3-8.1,2.3c-2.8,0-5.7-1.1-7.5-3.3
							c16.3-6.4,28.1-22.9,28.9-40.3C440.8,99.5,443.2,106.4,442.7,111.8z"/>
					</g>
					<g>
						<path class="st4" d="M447.1,75.2c-2.1-2.8-4.3-5.6-7.1-7.8c-3.4-2.7-7.7-4.6-12-4.1c-2.3,0.3-4.4,1.1-6.5,2.2
							c-7.8,3.9-14.5,9.7-20.8,15.6c1.5,2,2.9,4.1,4.1,6.3C415.9,77.7,431.8,73,447.1,75.2z"/>
					</g>
					<g>
						<path class="st15" d="M426.9,71.1c-4,0.5-7.9,2.1-11.3,4.3c-3.4,2.2-6.5,4.9-9.5,7.6c7.1-5.2,15.6-8.4,24.4-9
							c4.6-0.3,9.5,0,13.4-2.5C438.3,72,432.5,70.4,426.9,71.1z"/>
					</g>
					<g>
						<path class="st11" d="M406.2,83.6c-0.1,0-0.2,0-0.3-0.1c-0.2-0.2-0.2-0.4-0.1-0.6c6.6-8.4,17.2-13.1,27.8-12.5
							c1.1,0.1,2.1,0.2,3.2,0.3c2.2,0.2,4.4,0.5,6.6,0.3c0.3,0,0.5,0.2,0.5,0.4c0,0.2-0.2,0.5-0.4,0.5c-2.3,0.2-4.6,0-6.8-0.3
							c-1-0.1-2.1-0.2-3.1-0.3c-10.3-0.7-20.7,4-27,12.1C406.5,83.6,406.3,83.6,406.2,83.6z"/>
					</g>
				</g>
			</g>
			<g>
				<g>
					<g>
						<path class="st10" d="M388.3,107.3c-0.6,0.6-1.1,1.3-1.7,1.9c-8.5,9.3-18.9,18-31.5,19.5c-3.5,0.4-7,0.2-10.5,0.6
							c-3.5,0.4-7.1,1.4-9.6,3.9c-2.5,2.4-3.7,6.5-1.9,9.6c2.5,4.4,8.6,4.2,13.5,5.4c7.4,1.7,13.7,7.3,21.3,7.6
							c4.9,0.2,9.6-1.9,14-4c10.4-4.8,20.7-9.7,30.8-15C401,130.4,391.6,120.7,388.3,107.3z"/>
						<path class="st10" d="M350.8,131.1c-3.5-0.7-6.5-3-8.5-5.9c-1.1-1.6-2.5-3.6-4.4-3.3c-0.6,0.1-1.2,0.5-1.8,0.7
							c-1.9,0.6-3.9-0.3-5.7-1c-1.8-0.8-4.1-1.4-5.7-0.3c-1,0.7-1.6,1.9-2.8,2.3c-0.6,0.2-1.3,0.1-1.9,0.3c-1.7,0.4-1.1,2.1-1.7,4.9
							c-1.3,0.6-2,1.2-2.2,2.6c-0.2,1.4,0,2.8,0.1,4.2c0.1,2.7-0.3,5.4-1.2,7.9c1.5,0.6,3.8-1,4.1-2.6s0.7-3.3,0.9-4.4
							c1.8,4,5.3,7.2,9.4,8.7c1.3,0.5,2.8,0.8,4.2,0.5c1.4-0.3,2.5-1.1,3.7-1.9c4-2.8,8.1-5.6,12.1-8.4L350.8,131.1z"/>
						<path class="st4" d="M438.6,116.4c4-8.2,2.5-18.2-1.9-26.2c-2.7-5-7.1-9.8-12.7-10.3c-3.6-0.3-7.2,1.2-10.3,3.1
							c-10.1,6-17.5,15.4-25.4,24.2c3.3,13.4,12.7,23.1,24.5,29.3c2.7-1.4,5.4-2.8,8-4.3C427.9,128.3,435.1,123.7,438.6,116.4z"/>
					</g>
					<g>
						<path class="st9" d="M379.9,147.6c-15.9,9.7-30.9-2.7-46.6-4.5c2.6,4,8.5,3.9,13.3,5c7.4,1.7,13.7,7.3,21.3,7.6
							c4.9,0.2,9.6-1.9,14-4c10.4-4.8,20.7-9.7,30.8-15c-2.2-1.2-4.3-2.4-6.3-3.8C397.5,137,388.6,141.7,379.9,147.6z"/>
						<path class="st15" d="M436.8,119.5c-10,4.4-20.2,8.5-30.3,13.3c2,1.4,4.1,2.7,6.3,3.8c2.7-1.4,5.4-2.8,8-4.3
							C426.8,128.9,432.9,125,436.8,119.5z"/>
						<g>
							<path class="st11" d="M415.1,136.6c-12.7-5.9-22.3-18.1-25.1-31.9l0.9-0.2c2.7,13.4,12.1,25.4,24.5,31.2L415.1,136.6z"/>
						</g>
					</g>
				</g>
			</g>
		</g>
	</g>
</g>
</svg>
